  0
SECTION
  2
HEADER
  9
$ACADVER
  1
AC1009
  9
$EXTMIN
 10
0.0
 20
0.0
 30
0.0
  9
$EXTMAX
 10
1000.0
 20
1000.0
 30
0.0
  9
$FILLMODE
 70
 0
  9
$SPLFRAME
 70
 1
  0
ENDSEC
  0
SECTION
  2
TABLES
  0
TABLE
  2
LAYER
 70
1
  0
LAYER
  2
0
 70
     0
 62
     7
  6
CONTINUOUS
  0
ENDTAB
  0
ENDSEC
  0
SECTION
  2
ENTITIES
  0
LINE
  8
0
 62
     0
 10
317.906
 20
130.433
 30
0.0
 11
318.142
 21
130.423
 31
0.0
  0
LINE
  8
0
 62
     0
 10
318.142
 20
130.423
 30
0.0
 11
318.375
 21
130.397
 31
0.0
  0
LINE
  8
0
 62
     0
 10
318.375
 20
130.397
 30
0.0
 11
318.607
 21
130.35
 31
0.0
  0
LINE
  8
0
 62
     0
 10
318.607
 20
130.35
 30
0.0
 11
318.834
 21
130.286
 31
0.0
  0
LINE
  8
0
 62
     0
 10
318.834
 20
130.286
 30
0.0
 11
319.054
 21
130.204
 31
0.0
  0
LINE
  8
0
 62
     0
 10
319.054
 20
130.204
 30
0.0
 11
319.268
 21
130.106
 31
0.0
  0
LINE
  8
0
 62
     0
 10
319.268
 20
130.106
 30
0.0
 11
319.473
 21
129.99
 31
0.0
  0
LINE
  8
0
 62
     0
 10
319.473
 20
129.99
 30
0.0
 11
319.669
 21
129.861
 31
0.0
  0
LINE
  8
0
 62
     0
 10
319.669
 20
129.861
 30
0.0
 11
319.855
 21
129.715
 31
0.0
  0
LINE
  8
0
 62
     0
 10
319.855
 20
129.715
 30
0.0
 11
320.027
 21
129.555
 31
0.0
  0
LINE
  8
0
 62
     0
 10
320.027
 20
129.555
 30
0.0
 11
320.187
 21
129.381
 31
0.0
  0
LINE
  8
0
 62
     0
 10
320.187
 20
129.381
 30
0.0
 11
320.333
 21
129.197
 31
0.0
  0
LINE
  8
0
 62
     0
 10
320.333
 20
129.197
 30
0.0
 11
320.464
 21
129.001
 31
0.0
  0
LINE
  8
0
 62
     0
 10
320.464
 20
129.001
 30
0.0
 11
320.58
 21
128.794
 31
0.0
  0
LINE
  8
0
 62
     0
 10
320.58
 20
128.794
 30
0.0
 11
320.678
 21
128.58
 31
0.0
  0
LINE
  8
0
 62
     0
 10
320.678
 20
128.58
 30
0.0
 11
320.759
 21
128.36
 31
0.0
  0
LINE
  8
0
 62
     0
 10
320.759
 20
128.36
 30
0.0
 11
320.824
 21
128.133
 31
0.0
  0
LINE
  8
0
 62
     0
 10
320.824
 20
128.133
 30
0.0
 11
320.869
 21
127.903
 31
0.0
  0
LINE
  8
0
 62
     0
 10
320.869
 20
127.903
 30
0.0
 11
320.897
 21
127.669
 31
0.0
  0
LINE
  8
0
 62
     0
 10
320.897
 20
127.669
 30
0.0
 11
320.906
 21
127.433
 31
0.0
  0
LINE
  8
0
 62
     0
 10
320.906
 20
127.433
 30
0.0
 11
320.906
 21
3.12263
 31
0.0
  0
LINE
  8
0
 62
     0
 10
320.906
 20
3.12263
 30
0.0
 11
320.897
 21
2.88561
 31
0.0
  0
LINE
  8
0
 62
     0
 10
320.897
 20
2.88561
 30
0.0
 11
320.869
 21
2.65272
 31
0.0
  0
LINE
  8
0
 62
     0
 10
320.869
 20
2.65272
 30
0.0
 11
320.824
 21
2.42121
 31
0.0
  0
LINE
  8
0
 62
     0
 10
320.824
 20
2.42121
 30
0.0
 11
320.759
 21
2.19384
 31
0.0
  0
LINE
  8
0
 62
     0
 10
320.759
 20
2.19384
 30
0.0
 11
320.678
 21
1.97335
 31
0.0
  0
LINE
  8
0
 62
     0
 10
320.678
 20
1.97335
 30
0.0
 11
320.58
 21
1.75975
 31
0.0
  0
LINE
  8
0
 62
     0
 10
320.58
 20
1.75975
 30
0.0
 11
320.464
 21
1.55443
 31
0.0
  0
LINE
  8
0
 62
     0
 10
320.464
 20
1.55443
 30
0.0
 11
320.333
 21
1.35874
 31
0.0
  0
LINE
  8
0
 62
     0
 10
320.333
 20
1.35874
 30
0.0
 11
320.187
 21
1.17271
 31
0.0
  0
LINE
  8
0
 62
     0
 10
320.187
 20
1.17271
 30
0.0
 11
320.027
 21
1.00046
 31
0.0
  0
LINE
  8
0
 62
     0
 10
320.027
 20
1.00046
 30
0.0
 11
319.855
 21
0.840602
 31
0.0
  0
LINE
  8
0
 62
     0
 10
319.855
 20
0.840602
 30
0.0
 11
319.669
 21
0.694531
 31
0.0
  0
LINE
  8
0
 62
     0
 10
319.669
 20
0.694531
 30
0.0
 11
319.473
 21
0.563619
 31
0.0
  0
LINE
  8
0
 62
     0
 10
319.473
 20
0.563619
 30
0.0
 11
319.268
 21
0.447862
 31
0.0
  0
LINE
  8
0
 62
     0
 10
319.268
 20
0.447862
 30
0.0
 11
319.054
 21
0.350022
 31
0.0
  0
LINE
  8
0
 62
     0
 10
319.054
 20
0.350022
 30
0.0
 11
318.834
 21
0.268718
 31
0.0
  0
LINE
  8
0
 62
     0
 10
318.834
 20
0.268718
 30
0.0
 11
318.607
 21
0.20395
 31
0.0
  0
LINE
  8
0
 62
     0
 10
318.607
 20
0.20395
 30
0.0
 11
318.375
 21
0.158474
 31
0.0
  0
LINE
  8
0
 62
     0
 10
318.375
 20
0.158474
 30
0.0
 11
318.142
 21
0.130914
 31
0.0
  0
LINE
  8
0
 62
     0
 10
318.142
 20
0.130914
 30
0.0
 11
317.906
 21
0.121267
 31
0.0
  0
LINE
  8
0
 62
     0
 10
317.906
 20
0.121267
 30
0.0
 11
3.09507
 21
0.122645
 31
0.0
  0
LINE
  8
0
 62
     0
 10
3.09507
 20
0.122645
 30
0.0
 11
2.85943
 21
0.130914
 31
0.0
  0
LINE
  8
0
 62
     0
 10
2.85943
 20
0.130914
 30
0.0
 11
2.62516
 21
0.158474
 31
0.0
  0
LINE
  8
0
 62
     0
 10
2.62516
 20
0.158474
 30
0.0
 11
2.39503
 21
0.20395
 31
0.0
  0
LINE
  8
0
 62
     0
 10
2.39503
 20
0.20395
 30
0.0
 11
2.16765
 21
0.268718
 31
0.0
  0
LINE
  8
0
 62
     0
 10
2.16765
 20
0.268718
 30
0.0
 11
1.94717
 21
0.350022
 31
0.0
  0
LINE
  8
0
 62
     0
 10
1.94717
 20
0.350022
 30
0.0
 11
1.73357
 21
0.447862
 31
0.0
  0
LINE
  8
0
 62
     0
 10
1.73357
 20
0.447862
 30
0.0
 11
1.52687
 21
0.563619
 31
0.0
  0
LINE
  8
0
 62
     0
 10
1.52687
 20
0.563619
 30
0.0
 11
1.33119
 21
0.694531
 31
0.0
  0
LINE
  8
0
 62
     0
 10
1.33119
 20
0.694531
 30
0.0
 11
1.14653
 21
0.840602
 31
0.0
  0
LINE
  8
0
 62
     0
 10
1.14653
 20
0.840602
 30
0.0
 11
0.972894
 21
1.00046
 31
0.0
  0
LINE
  8
0
 62
     0
 10
0.972894
 20
1.00046
 30
0.0
 11
0.813043
 21
1.17271
 31
0.0
  0
LINE
  8
0
 62
     0
 10
0.813043
 20
1.17271
 30
0.0
 11
0.666972
 21
1.35874
 31
0.0
  0
LINE
  8
0
 62
     0
 10
0.666972
 20
1.35874
 30
0.0
 11
0.537436
 21
1.55443
 31
0.0
  0
LINE
  8
0
 62
     0
 10
0.537436
 20
1.55443
 30
0.0
 11
0.421679
 21
1.75975
 31
0.0
  0
LINE
  8
0
 62
     0
 10
0.421679
 20
1.75975
 30
0.0
 11
0.323839
 21
1.97335
 31
0.0
  0
LINE
  8
0
 62
     0
 10
0.323839
 20
1.97335
 30
0.0
 11
0.241157
 21
2.19384
 31
0.0
  0
LINE
  8
0
 62
     0
 10
0.241157
 20
2.19384
 30
0.0
 11
0.177767
 21
2.42121
 31
0.0
  0
LINE
  8
0
 62
     0
 10
0.177767
 20
2.42121
 30
0.0
 11
0.130914
 21
2.65272
 31
0.0
  0
LINE
  8
0
 62
     0
 10
0.130914
 20
2.65272
 30
0.0
 11
0.104731
 21
2.88561
 31
0.0
  0
LINE
  8
0
 62
     0
 10
0.104731
 20
2.88561
 30
0.0
 11
0.0950846
 21
3.12263
 31
0.0
  0
LINE
  8
0
 62
     0
 10
0.0950846
 20
3.12263
 30
0.0
 11
0.0950846
 21
127.433
 31
0.0
  0
LINE
  8
0
 62
     0
 10
0.0950846
 20
127.433
 30
0.0
 11
0.104731
 21
127.669
 31
0.0
  0
LINE
  8
0
 62
     0
 10
0.104731
 20
127.669
 30
0.0
 11
0.130914
 21
127.903
 31
0.0
  0
LINE
  8
0
 62
     0
 10
0.130914
 20
127.903
 30
0.0
 11
0.177767
 21
128.133
 31
0.0
  0
LINE
  8
0
 62
     0
 10
0.177767
 20
128.133
 30
0.0
 11
0.241157
 21
128.36
 31
0.0
  0
LINE
  8
0
 62
     0
 10
0.241157
 20
128.36
 30
0.0
 11
0.323839
 21
128.58
 31
0.0
  0
LINE
  8
0
 62
     0
 10
0.323839
 20
128.58
 30
0.0
 11
0.421679
 21
128.794
 31
0.0
  0
LINE
  8
0
 62
     0
 10
0.421679
 20
128.794
 30
0.0
 11
0.537436
 21
129.001
 31
0.0
  0
LINE
  8
0
 62
     0
 10
0.537436
 20
129.001
 30
0.0
 11
0.666972
 21
129.197
 31
0.0
  0
LINE
  8
0
 62
     0
 10
0.666972
 20
129.197
 30
0.0
 11
0.813043
 21
129.381
 31
0.0
  0
LINE
  8
0
 62
     0
 10
0.813043
 20
129.381
 30
0.0
 11
0.972894
 21
129.555
 31
0.0
  0
LINE
  8
0
 62
     0
 10
0.972894
 20
129.555
 30
0.0
 11
1.14653
 21
129.715
 31
0.0
  0
LINE
  8
0
 62
     0
 10
1.14653
 20
129.715
 30
0.0
 11
1.33119
 21
129.861
 31
0.0
  0
LINE
  8
0
 62
     0
 10
1.33119
 20
129.861
 30
0.0
 11
1.52687
 21
129.99
 31
0.0
  0
LINE
  8
0
 62
     0
 10
1.52687
 20
129.99
 30
0.0
 11
1.73357
 21
130.106
 31
0.0
  0
LINE
  8
0
 62
     0
 10
1.73357
 20
130.106
 30
0.0
 11
1.94717
 21
130.204
 31
0.0
  0
LINE
  8
0
 62
     0
 10
1.94717
 20
130.204
 30
0.0
 11
2.16765
 21
130.286
 31
0.0
  0
LINE
  8
0
 62
     0
 10
2.16765
 20
130.286
 30
0.0
 11
2.39503
 21
130.35
 31
0.0
  0
LINE
  8
0
 62
     0
 10
2.39503
 20
130.35
 30
0.0
 11
2.62516
 21
130.397
 31
0.0
  0
LINE
  8
0
 62
     0
 10
2.62516
 20
130.397
 30
0.0
 11
2.85943
 21
130.423
 31
0.0
  0
LINE
  8
0
 62
     0
 10
2.85943
 20
130.423
 30
0.0
 11
3.09507
 21
130.433
 31
0.0
  0
LINE
  8
0
 62
     0
 10
3.09507
 20
130.433
 30
0.0
 11
317.906
 21
130.433
 31
0.0
  0
LINE
  8
0
 62
     0
 10
2.10702
 20
4.14376
 30
0.0
 11
1.66191
 21
3.91777
 31
0.0
  0
LINE
  8
0
 62
     0
 10
1.66191
 20
3.91777
 30
0.0
 11
1.30914
 21
3.56362
 31
0.0
  0
LINE
  8
0
 62
     0
 10
1.30914
 20
3.56362
 30
0.0
 11
1.08314
 21
3.11988
 31
0.0
  0
LINE
  8
0
 62
     0
 10
1.08314
 20
3.11988
 30
0.0
 11
1.00459
 21
2.62654
 31
0.0
  0
LINE
  8
0
 62
     0
 10
1.00459
 20
2.62654
 30
0.0
 11
1.08314
 21
2.13458
 31
0.0
  0
LINE
  8
0
 62
     0
 10
1.08314
 20
2.13458
 30
0.0
 11
1.30914
 21
1.68947
 31
0.0
  0
LINE
  8
0
 62
     0
 10
1.30914
 20
1.68947
 30
0.0
 11
1.66191
 21
1.3367
 31
0.0
  0
LINE
  8
0
 62
     0
 10
1.66191
 20
1.3367
 30
0.0
 11
2.10702
 21
1.1107
 31
0.0
  0
LINE
  8
0
 62
     0
 10
2.10702
 20
1.1107
 30
0.0
 11
2.59898
 21
1.03077
 31
0.0
  0
LINE
  8
0
 62
     0
 10
2.59898
 20
1.03077
 30
0.0
 11
3.09232
 21
1.1107
 31
0.0
  0
LINE
  8
0
 62
     0
 10
3.09232
 20
1.1107
 30
0.0
 11
3.53741
 21
1.3367
 31
0.0
  0
LINE
  8
0
 62
     0
 10
3.53741
 20
1.3367
 30
0.0
 11
3.89019
 21
1.68947
 31
0.0
  0
LINE
  8
0
 62
     0
 10
3.89019
 20
1.68947
 30
0.0
 11
4.11621
 21
2.13458
 31
0.0
  0
LINE
  8
0
 62
     0
 10
4.11621
 20
2.13458
 30
0.0
 11
4.19474
 21
2.62654
 31
0.0
  0
LINE
  8
0
 62
     0
 10
4.19474
 20
2.62654
 30
0.0
 11
4.11621
 21
3.11988
 31
0.0
  0
LINE
  8
0
 62
     0
 10
4.11621
 20
3.11988
 30
0.0
 11
3.89019
 21
3.56362
 31
0.0
  0
LINE
  8
0
 62
     0
 10
3.89019
 20
3.56362
 30
0.0
 11
3.53741
 21
3.91777
 31
0.0
  0
LINE
  8
0
 62
     0
 10
3.53741
 20
3.91777
 30
0.0
 11
3.09232
 21
4.14376
 31
0.0
  0
LINE
  8
0
 62
     0
 10
3.09232
 20
4.14376
 30
0.0
 11
2.59898
 21
4.22233
 31
0.0
  0
LINE
  8
0
 62
     0
 10
2.59898
 20
4.22233
 30
0.0
 11
2.10702
 21
4.14376
 31
0.0
  0
LINE
  8
0
 62
     0
 10
107.374
 20
4.14376
 30
0.0
 11
106.929
 21
3.91777
 31
0.0
  0
LINE
  8
0
 62
     0
 10
106.929
 20
3.91777
 30
0.0
 11
106.576
 21
3.56362
 31
0.0
  0
LINE
  8
0
 62
     0
 10
106.576
 20
3.56362
 30
0.0
 11
106.35
 21
3.11988
 31
0.0
  0
LINE
  8
0
 62
     0
 10
106.35
 20
3.11988
 30
0.0
 11
106.271
 21
2.62654
 31
0.0
  0
LINE
  8
0
 62
     0
 10
106.271
 20
2.62654
 30
0.0
 11
106.35
 21
2.13458
 31
0.0
  0
LINE
  8
0
 62
     0
 10
106.35
 20
2.13458
 30
0.0
 11
106.576
 21
1.68947
 31
0.0
  0
LINE
  8
0
 62
     0
 10
106.576
 20
1.68947
 30
0.0
 11
106.929
 21
1.3367
 31
0.0
  0
LINE
  8
0
 62
     0
 10
106.929
 20
1.3367
 30
0.0
 11
107.374
 21
1.1107
 31
0.0
  0
LINE
  8
0
 62
     0
 10
107.374
 20
1.1107
 30
0.0
 11
107.867
 21
1.03077
 31
0.0
  0
LINE
  8
0
 62
     0
 10
107.867
 20
1.03077
 30
0.0
 11
108.359
 21
1.1107
 31
0.0
  0
LINE
  8
0
 62
     0
 10
108.359
 20
1.1107
 30
0.0
 11
108.804
 21
1.3367
 31
0.0
  0
LINE
  8
0
 62
     0
 10
108.804
 20
1.3367
 30
0.0
 11
109.157
 21
1.68947
 31
0.0
  0
LINE
  8
0
 62
     0
 10
109.157
 20
1.68947
 30
0.0
 11
109.383
 21
2.13458
 31
0.0
  0
LINE
  8
0
 62
     0
 10
109.383
 20
2.13458
 30
0.0
 11
109.463
 21
2.62654
 31
0.0
  0
LINE
  8
0
 62
     0
 10
109.463
 20
2.62654
 30
0.0
 11
109.383
 21
3.11988
 31
0.0
  0
LINE
  8
0
 62
     0
 10
109.383
 20
3.11988
 30
0.0
 11
109.157
 21
3.56362
 31
0.0
  0
LINE
  8
0
 62
     0
 10
109.157
 20
3.56362
 30
0.0
 11
108.804
 21
3.91777
 31
0.0
  0
LINE
  8
0
 62
     0
 10
108.804
 20
3.91777
 30
0.0
 11
108.359
 21
4.14376
 31
0.0
  0
LINE
  8
0
 62
     0
 10
108.359
 20
4.14376
 30
0.0
 11
107.867
 21
4.22233
 31
0.0
  0
LINE
  8
0
 62
     0
 10
107.867
 20
4.22233
 30
0.0
 11
107.374
 21
4.14376
 31
0.0
  0
LINE
  8
0
 62
     0
 10
212.641
 20
4.14376
 30
0.0
 11
212.196
 21
3.91777
 31
0.0
  0
LINE
  8
0
 62
     0
 10
212.196
 20
3.91777
 30
0.0
 11
211.843
 21
3.56362
 31
0.0
  0
LINE
  8
0
 62
     0
 10
211.843
 20
3.56362
 30
0.0
 11
211.617
 21
3.11988
 31
0.0
  0
LINE
  8
0
 62
     0
 10
211.617
 20
3.11988
 30
0.0
 11
211.54
 21
2.62654
 31
0.0
  0
LINE
  8
0
 62
     0
 10
211.54
 20
2.62654
 30
0.0
 11
211.617
 21
2.13458
 31
0.0
  0
LINE
  8
0
 62
     0
 10
211.617
 20
2.13458
 30
0.0
 11
211.843
 21
1.68947
 31
0.0
  0
LINE
  8
0
 62
     0
 10
211.843
 20
1.68947
 30
0.0
 11
212.196
 21
1.3367
 31
0.0
  0
LINE
  8
0
 62
     0
 10
212.196
 20
1.3367
 30
0.0
 11
212.641
 21
1.1107
 31
0.0
  0
LINE
  8
0
 62
     0
 10
212.641
 20
1.1107
 30
0.0
 11
213.134
 21
1.03077
 31
0.0
  0
LINE
  8
0
 62
     0
 10
213.134
 20
1.03077
 30
0.0
 11
213.626
 21
1.1107
 31
0.0
  0
LINE
  8
0
 62
     0
 10
213.626
 20
1.1107
 30
0.0
 11
214.071
 21
1.3367
 31
0.0
  0
LINE
  8
0
 62
     0
 10
214.071
 20
1.3367
 30
0.0
 11
214.424
 21
1.68947
 31
0.0
  0
LINE
  8
0
 62
     0
 10
214.424
 20
1.68947
 30
0.0
 11
214.65
 21
2.13458
 31
0.0
  0
LINE
  8
0
 62
     0
 10
214.65
 20
2.13458
 30
0.0
 11
214.73
 21
2.62654
 31
0.0
  0
LINE
  8
0
 62
     0
 10
214.73
 20
2.62654
 30
0.0
 11
214.65
 21
3.11988
 31
0.0
  0
LINE
  8
0
 62
     0
 10
214.65
 20
3.11988
 30
0.0
 11
214.424
 21
3.56362
 31
0.0
  0
LINE
  8
0
 62
     0
 10
214.424
 20
3.56362
 30
0.0
 11
214.071
 21
3.91777
 31
0.0
  0
LINE
  8
0
 62
     0
 10
214.071
 20
3.91777
 30
0.0
 11
213.626
 21
4.14376
 31
0.0
  0
LINE
  8
0
 62
     0
 10
213.626
 20
4.14376
 30
0.0
 11
213.134
 21
4.22233
 31
0.0
  0
LINE
  8
0
 62
     0
 10
213.134
 20
4.22233
 30
0.0
 11
212.641
 21
4.14376
 31
0.0
  0
LINE
  8
0
 62
     0
 10
317.908
 20
4.14376
 30
0.0
 11
317.464
 21
3.91777
 31
0.0
  0
LINE
  8
0
 62
     0
 10
317.464
 20
3.91777
 30
0.0
 11
317.11
 21
3.56362
 31
0.0
  0
LINE
  8
0
 62
     0
 10
317.11
 20
3.56362
 30
0.0
 11
316.884
 21
3.11988
 31
0.0
  0
LINE
  8
0
 62
     0
 10
316.884
 20
3.11988
 30
0.0
 11
316.807
 21
2.62654
 31
0.0
  0
LINE
  8
0
 62
     0
 10
316.807
 20
2.62654
 30
0.0
 11
316.884
 21
2.13458
 31
0.0
  0
LINE
  8
0
 62
     0
 10
316.884
 20
2.13458
 30
0.0
 11
317.11
 21
1.68947
 31
0.0
  0
LINE
  8
0
 62
     0
 10
317.11
 20
1.68947
 30
0.0
 11
317.464
 21
1.3367
 31
0.0
  0
LINE
  8
0
 62
     0
 10
317.464
 20
1.3367
 30
0.0
 11
317.908
 21
1.1107
 31
0.0
  0
LINE
  8
0
 62
     0
 10
317.908
 20
1.1107
 30
0.0
 11
318.401
 21
1.03077
 31
0.0
  0
LINE
  8
0
 62
     0
 10
318.401
 20
1.03077
 30
0.0
 11
318.893
 21
1.1107
 31
0.0
  0
LINE
  8
0
 62
     0
 10
318.893
 20
1.1107
 30
0.0
 11
319.338
 21
1.3367
 31
0.0
  0
LINE
  8
0
 62
     0
 10
319.338
 20
1.3367
 30
0.0
 11
319.691
 21
1.68947
 31
0.0
  0
LINE
  8
0
 62
     0
 10
319.691
 20
1.68947
 30
0.0
 11
319.917
 21
2.13458
 31
0.0
  0
LINE
  8
0
 62
     0
 10
319.917
 20
2.13458
 30
0.0
 11
319.997
 21
2.62654
 31
0.0
  0
LINE
  8
0
 62
     0
 10
319.997
 20
2.62654
 30
0.0
 11
319.917
 21
3.11988
 31
0.0
  0
LINE
  8
0
 62
     0
 10
319.917
 20
3.11988
 30
0.0
 11
319.691
 21
3.56362
 31
0.0
  0
LINE
  8
0
 62
     0
 10
319.691
 20
3.56362
 30
0.0
 11
319.338
 21
3.91777
 31
0.0
  0
LINE
  8
0
 62
     0
 10
319.338
 20
3.91777
 30
0.0
 11
318.893
 21
4.14376
 31
0.0
  0
LINE
  8
0
 62
     0
 10
318.893
 20
4.14376
 30
0.0
 11
318.401
 21
4.22233
 31
0.0
  0
LINE
  8
0
 62
     0
 10
318.401
 20
4.22233
 30
0.0
 11
317.908
 21
4.14376
 31
0.0
  0
LINE
  8
0
 62
     0
 10
148.743
 20
24.649
 30
0.0
 11
148.743
 21
19.9485
 31
0.0
  0
LINE
  8
0
 62
     0
 10
148.743
 20
19.9485
 30
0.0
 11
116.246
 21
19.9485
 31
0.0
  0
LINE
  8
0
 62
     0
 10
116.246
 20
19.9485
 30
0.0
 11
116.246
 21
23.1786
 31
0.0
  0
LINE
  8
0
 62
     0
 10
116.246
 20
23.1786
 30
0.0
 11
114.52
 21
23.1786
 31
0.0
  0
LINE
  8
0
 62
     0
 10
114.52
 20
23.1786
 30
0.0
 11
114.52
 21
24.0978
 31
0.0
  0
LINE
  8
0
 62
     0
 10
114.52
 20
24.0978
 30
0.0
 11
111.231
 21
24.0978
 31
0.0
  0
LINE
  8
0
 62
     0
 10
111.231
 20
24.0978
 30
0.0
 11
111.231
 21
23.1786
 31
0.0
  0
LINE
  8
0
 62
     0
 10
111.231
 20
23.1786
 30
0.0
 11
109.506
 21
23.1786
 31
0.0
  0
LINE
  8
0
 62
     0
 10
109.506
 20
23.1786
 30
0.0
 11
109.506
 21
19.9485
 31
0.0
  0
LINE
  8
0
 62
     0
 10
109.506
 20
19.9485
 30
0.0
 11
108.68
 21
19.9485
 31
0.0
  0
LINE
  8
0
 62
     0
 10
108.68
 20
19.9485
 30
0.0
 11
108.68
 21
17.1579
 31
0.0
  0
LINE
  8
0
 62
     0
 10
108.68
 20
17.1579
 30
0.0
 11
109.506
 21
17.1579
 31
0.0
  0
LINE
  8
0
 62
     0
 10
109.506
 20
17.1579
 30
0.0
 11
109.506
 21
10.8879
 31
0.0
  0
LINE
  8
0
 62
     0
 10
109.506
 20
10.8879
 30
0.0
 11
111.231
 21
10.8879
 31
0.0
  0
LINE
  8
0
 62
     0
 10
111.231
 20
10.8879
 30
0.0
 11
111.231
 21
9.90808
 31
0.0
  0
LINE
  8
0
 62
     0
 10
111.231
 20
9.90808
 30
0.0
 11
114.52
 21
9.90808
 31
0.0
  0
LINE
  8
0
 62
     0
 10
114.52
 20
9.90808
 30
0.0
 11
114.52
 21
10.8879
 31
0.0
  0
LINE
  8
0
 62
     0
 10
114.52
 20
10.8879
 30
0.0
 11
116.246
 21
10.8879
 31
0.0
  0
LINE
  8
0
 62
     0
 10
116.246
 20
10.8879
 30
0.0
 11
116.246
 21
15.3583
 31
0.0
  0
LINE
  8
0
 62
     0
 10
116.246
 20
15.3583
 30
0.0
 11
148.743
 21
15.3583
 31
0.0
  0
LINE
  8
0
 62
     0
 10
148.743
 20
15.3583
 30
0.0
 11
148.743
 21
10.6577
 31
0.0
  0
LINE
  8
0
 62
     0
 10
148.743
 20
10.6577
 30
0.0
 11
162.733
 21
10.6577
 31
0.0
  0
LINE
  8
0
 62
     0
 10
162.733
 20
10.6577
 30
0.0
 11
162.733
 21
15.3583
 31
0.0
  0
LINE
  8
0
 62
     0
 10
162.733
 20
15.3583
 30
0.0
 11
195.231
 21
15.3583
 31
0.0
  0
LINE
  8
0
 62
     0
 10
195.231
 20
15.3583
 30
0.0
 11
195.231
 21
10.8879
 31
0.0
  0
LINE
  8
0
 62
     0
 10
195.231
 20
10.8879
 30
0.0
 11
196.956
 21
10.8879
 31
0.0
  0
LINE
  8
0
 62
     0
 10
196.956
 20
10.8879
 30
0.0
 11
196.956
 21
9.90808
 31
0.0
  0
LINE
  8
0
 62
     0
 10
196.956
 20
9.90808
 30
0.0
 11
200.245
 21
9.90808
 31
0.0
  0
LINE
  8
0
 62
     0
 10
200.245
 20
9.90808
 30
0.0
 11
200.245
 21
10.8879
 31
0.0
  0
LINE
  8
0
 62
     0
 10
200.245
 20
10.8879
 30
0.0
 11
201.971
 21
10.8879
 31
0.0
  0
LINE
  8
0
 62
     0
 10
201.971
 20
10.8879
 30
0.0
 11
201.971
 21
17.1579
 31
0.0
  0
LINE
  8
0
 62
     0
 10
201.971
 20
17.1579
 30
0.0
 11
202.795
 21
17.1579
 31
0.0
  0
LINE
  8
0
 62
     0
 10
202.795
 20
17.1579
 30
0.0
 11
202.795
 21
19.9485
 31
0.0
  0
LINE
  8
0
 62
     0
 10
202.795
 20
19.9485
 30
0.0
 11
201.971
 21
19.9485
 31
0.0
  0
LINE
  8
0
 62
     0
 10
201.971
 20
19.9485
 30
0.0
 11
201.971
 21
23.1786
 31
0.0
  0
LINE
  8
0
 62
     0
 10
201.971
 20
23.1786
 30
0.0
 11
200.245
 21
23.1786
 31
0.0
  0
LINE
  8
0
 62
     0
 10
200.245
 20
23.1786
 30
0.0
 11
200.245
 21
24.0978
 31
0.0
  0
LINE
  8
0
 62
     0
 10
200.245
 20
24.0978
 30
0.0
 11
196.956
 21
24.0978
 31
0.0
  0
LINE
  8
0
 62
     0
 10
196.956
 20
24.0978
 30
0.0
 11
196.956
 21
23.1786
 31
0.0
  0
LINE
  8
0
 62
     0
 10
196.956
 20
23.1786
 30
0.0
 11
195.231
 21
23.1786
 31
0.0
  0
LINE
  8
0
 62
     0
 10
195.231
 20
23.1786
 30
0.0
 11
195.231
 21
19.9485
 31
0.0
  0
LINE
  8
0
 62
     0
 10
195.231
 20
19.9485
 30
0.0
 11
162.733
 21
19.9485
 31
0.0
  0
LINE
  8
0
 62
     0
 10
162.733
 20
19.9485
 30
0.0
 11
162.733
 21
24.649
 31
0.0
  0
LINE
  8
0
 62
     0
 10
162.733
 20
24.649
 30
0.0
 11
148.743
 21
24.649
 31
0.0
  0
LINE
  8
0
 62
     0
 10
296.38
 20
24.649
 30
0.0
 11
310.37
 21
24.649
 31
0.0
  0
LINE
  8
0
 62
     0
 10
310.37
 20
24.649
 30
0.0
 11
310.37
 21
10.6577
 31
0.0
  0
LINE
  8
0
 62
     0
 10
310.37
 20
10.6577
 30
0.0
 11
296.38
 21
10.6577
 31
0.0
  0
LINE
  8
0
 62
     0
 10
296.38
 20
10.6577
 30
0.0
 11
296.38
 21
24.649
 31
0.0
  0
LINE
  8
0
 62
     0
 10
277.33
 20
24.649
 30
0.0
 11
291.32
 21
24.649
 31
0.0
  0
LINE
  8
0
 62
     0
 10
291.32
 20
24.649
 30
0.0
 11
291.32
 21
10.6577
 31
0.0
  0
LINE
  8
0
 62
     0
 10
291.32
 20
10.6577
 30
0.0
 11
277.33
 21
10.6577
 31
0.0
  0
LINE
  8
0
 62
     0
 10
277.33
 20
10.6577
 30
0.0
 11
277.33
 21
24.649
 31
0.0
  0
LINE
  8
0
 62
     0
 10
258.28
 20
24.649
 30
0.0
 11
272.27
 21
24.649
 31
0.0
  0
LINE
  8
0
 62
     0
 10
272.27
 20
24.649
 30
0.0
 11
272.27
 21
10.6577
 31
0.0
  0
LINE
  8
0
 62
     0
 10
272.27
 20
10.6577
 30
0.0
 11
258.28
 21
10.6577
 31
0.0
  0
LINE
  8
0
 62
     0
 10
258.28
 20
10.6577
 30
0.0
 11
258.28
 21
24.649
 31
0.0
  0
LINE
  8
0
 62
     0
 10
234.468
 20
24.649
 30
0.0
 11
248.458
 21
24.649
 31
0.0
  0
LINE
  8
0
 62
     0
 10
248.458
 20
24.649
 30
0.0
 11
248.458
 21
10.6577
 31
0.0
  0
LINE
  8
0
 62
     0
 10
248.458
 20
10.6577
 30
0.0
 11
234.468
 21
10.6577
 31
0.0
  0
LINE
  8
0
 62
     0
 10
234.468
 20
10.6577
 30
0.0
 11
234.468
 21
24.649
 31
0.0
  0
LINE
  8
0
 62
     0
 10
210.655
 20
24.649
 30
0.0
 11
224.645
 21
24.649
 31
0.0
  0
LINE
  8
0
 62
     0
 10
224.645
 20
24.649
 30
0.0
 11
224.645
 21
10.6577
 31
0.0
  0
LINE
  8
0
 62
     0
 10
224.645
 20
10.6577
 30
0.0
 11
210.655
 21
10.6577
 31
0.0
  0
LINE
  8
0
 62
     0
 10
210.655
 20
10.6577
 30
0.0
 11
210.655
 21
24.649
 31
0.0
  0
LINE
  8
0
 62
     0
 10
86.8303
 20
24.649
 30
0.0
 11
100.82
 21
24.649
 31
0.0
  0
LINE
  8
0
 62
     0
 10
100.82
 20
24.649
 30
0.0
 11
100.82
 21
10.6577
 31
0.0
  0
LINE
  8
0
 62
     0
 10
100.82
 20
10.6577
 30
0.0
 11
86.8303
 21
10.6577
 31
0.0
  0
LINE
  8
0
 62
     0
 10
86.8303
 20
10.6577
 30
0.0
 11
86.8303
 21
24.649
 31
0.0
  0
LINE
  8
0
 62
     0
 10
63.0178
 20
24.649
 30
0.0
 11
77.0075
 21
24.649
 31
0.0
  0
LINE
  8
0
 62
     0
 10
77.0075
 20
24.649
 30
0.0
 11
77.0075
 21
10.6577
 31
0.0
  0
LINE
  8
0
 62
     0
 10
77.0075
 20
10.6577
 30
0.0
 11
63.0178
 21
10.6577
 31
0.0
  0
LINE
  8
0
 62
     0
 10
63.0178
 20
10.6577
 30
0.0
 11
63.0178
 21
24.649
 31
0.0
  0
LINE
  8
0
 62
     0
 10
39.2053
 20
24.649
 30
0.0
 11
53.195
 21
24.649
 31
0.0
  0
LINE
  8
0
 62
     0
 10
53.195
 20
24.649
 30
0.0
 11
53.195
 21
10.6577
 31
0.0
  0
LINE
  8
0
 62
     0
 10
53.195
 20
10.6577
 30
0.0
 11
39.2053
 21
10.6577
 31
0.0
  0
LINE
  8
0
 62
     0
 10
39.2053
 20
10.6577
 30
0.0
 11
39.2053
 21
24.649
 31
0.0
  0
LINE
  8
0
 62
     0
 10
15.3927
 20
24.649
 30
0.0
 11
29.3825
 21
24.649
 31
0.0
  0
LINE
  8
0
 62
     0
 10
29.3825
 20
24.649
 30
0.0
 11
29.3825
 21
10.6577
 31
0.0
  0
LINE
  8
0
 62
     0
 10
29.3825
 20
10.6577
 30
0.0
 11
15.3927
 21
10.6577
 31
0.0
  0
LINE
  8
0
 62
     0
 10
15.3927
 20
10.6577
 30
0.0
 11
15.3927
 21
24.649
 31
0.0
  0
LINE
  8
0
 62
     0
 10
22.5364
 20
43.6989
 30
0.0
 11
22.5364
 21
38.9985
 31
0.0
  0
LINE
  8
0
 62
     0
 10
22.5364
 20
38.9985
 30
0.0
 11
21.0013
 21
38.9985
 31
0.0
  0
LINE
  8
0
 62
     0
 10
21.0013
 20
38.9985
 30
0.0
 11
21.0013
 21
42.2286
 31
0.0
  0
LINE
  8
0
 62
     0
 10
21.0013
 20
42.2286
 30
0.0
 11
19.276
 21
42.2286
 31
0.0
  0
LINE
  8
0
 62
     0
 10
19.276
 20
42.2286
 30
0.0
 11
19.276
 21
43.1479
 31
0.0
  0
LINE
  8
0
 62
     0
 10
19.276
 20
43.1479
 30
0.0
 11
15.9866
 21
43.1479
 31
0.0
  0
LINE
  8
0
 62
     0
 10
15.9866
 20
43.1479
 30
0.0
 11
15.9866
 21
42.2286
 31
0.0
  0
LINE
  8
0
 62
     0
 10
15.9866
 20
42.2286
 30
0.0
 11
14.2613
 21
42.2286
 31
0.0
  0
LINE
  8
0
 62
     0
 10
14.2613
 20
42.2286
 30
0.0
 11
14.2613
 21
38.9985
 31
0.0
  0
LINE
  8
0
 62
     0
 10
14.2613
 20
38.9985
 30
0.0
 11
13.4359
 21
38.9985
 31
0.0
  0
LINE
  8
0
 62
     0
 10
13.4359
 20
38.9985
 30
0.0
 11
13.4359
 21
36.2081
 31
0.0
  0
LINE
  8
0
 62
     0
 10
13.4359
 20
36.2081
 30
0.0
 11
14.2613
 21
36.2081
 31
0.0
  0
LINE
  8
0
 62
     0
 10
14.2613
 20
36.2081
 30
0.0
 11
14.2613
 21
29.9379
 31
0.0
  0
LINE
  8
0
 62
     0
 10
14.2613
 20
29.9379
 30
0.0
 11
15.9866
 21
29.9379
 31
0.0
  0
LINE
  8
0
 62
     0
 10
15.9866
 20
29.9379
 30
0.0
 11
15.9866
 21
28.9567
 31
0.0
  0
LINE
  8
0
 62
     0
 10
15.9866
 20
28.9567
 30
0.0
 11
19.276
 21
28.9567
 31
0.0
  0
LINE
  8
0
 62
     0
 10
19.276
 20
28.9567
 30
0.0
 11
19.276
 21
29.9379
 31
0.0
  0
LINE
  8
0
 62
     0
 10
19.276
 20
29.9379
 30
0.0
 11
21.0013
 21
29.9379
 31
0.0
  0
LINE
  8
0
 62
     0
 10
21.0013
 20
29.9379
 30
0.0
 11
21.0013
 21
34.4083
 31
0.0
  0
LINE
  8
0
 62
     0
 10
21.0013
 20
34.4083
 30
0.0
 11
22.5364
 21
34.4083
 31
0.0
  0
LINE
  8
0
 62
     0
 10
22.5364
 20
34.4083
 30
0.0
 11
22.5364
 21
29.7077
 31
0.0
  0
LINE
  8
0
 62
     0
 10
22.5364
 20
29.7077
 30
0.0
 11
36.5263
 21
29.7077
 31
0.0
  0
LINE
  8
0
 62
     0
 10
36.5263
 20
29.7077
 30
0.0
 11
36.5263
 21
34.4083
 31
0.0
  0
LINE
  8
0
 62
     0
 10
36.5263
 20
34.4083
 30
0.0
 11
38.0615
 21
34.4083
 31
0.0
  0
LINE
  8
0
 62
     0
 10
38.0615
 20
34.4083
 30
0.0
 11
38.0615
 21
29.9379
 31
0.0
  0
LINE
  8
0
 62
     0
 10
38.0615
 20
29.9379
 30
0.0
 11
39.7866
 21
29.9379
 31
0.0
  0
LINE
  8
0
 62
     0
 10
39.7866
 20
29.9379
 30
0.0
 11
39.7866
 21
28.9567
 31
0.0
  0
LINE
  8
0
 62
     0
 10
39.7866
 20
28.9567
 30
0.0
 11
43.0759
 21
28.9567
 31
0.0
  0
LINE
  8
0
 62
     0
 10
43.0759
 20
28.9567
 30
0.0
 11
43.0759
 21
29.9379
 31
0.0
  0
LINE
  8
0
 62
     0
 10
43.0759
 20
29.9379
 30
0.0
 11
44.8014
 21
29.9379
 31
0.0
  0
LINE
  8
0
 62
     0
 10
44.8014
 20
29.9379
 30
0.0
 11
44.8014
 21
36.2081
 31
0.0
  0
LINE
  8
0
 62
     0
 10
44.8014
 20
36.2081
 30
0.0
 11
45.6269
 21
36.2081
 31
0.0
  0
LINE
  8
0
 62
     0
 10
45.6269
 20
36.2081
 30
0.0
 11
45.6269
 21
38.9985
 31
0.0
  0
LINE
  8
0
 62
     0
 10
45.6269
 20
38.9985
 30
0.0
 11
44.8014
 21
38.9985
 31
0.0
  0
LINE
  8
0
 62
     0
 10
44.8014
 20
38.9985
 30
0.0
 11
44.8014
 21
42.2286
 31
0.0
  0
LINE
  8
0
 62
     0
 10
44.8014
 20
42.2286
 30
0.0
 11
43.0759
 21
42.2286
 31
0.0
  0
LINE
  8
0
 62
     0
 10
43.0759
 20
42.2286
 30
0.0
 11
43.0759
 21
43.1479
 31
0.0
  0
LINE
  8
0
 62
     0
 10
43.0759
 20
43.1479
 30
0.0
 11
39.7866
 21
43.1479
 31
0.0
  0
LINE
  8
0
 62
     0
 10
39.7866
 20
43.1479
 30
0.0
 11
39.7866
 21
42.2286
 31
0.0
  0
LINE
  8
0
 62
     0
 10
39.7866
 20
42.2286
 30
0.0
 11
38.0615
 21
42.2286
 31
0.0
  0
LINE
  8
0
 62
     0
 10
38.0615
 20
42.2286
 30
0.0
 11
38.0615
 21
38.9985
 31
0.0
  0
LINE
  8
0
 62
     0
 10
38.0615
 20
38.9985
 30
0.0
 11
36.5263
 21
38.9985
 31
0.0
  0
LINE
  8
0
 62
     0
 10
36.5263
 20
38.9985
 30
0.0
 11
36.5263
 21
43.6989
 31
0.0
  0
LINE
  8
0
 62
     0
 10
36.5263
 20
43.6989
 30
0.0
 11
22.5364
 21
43.6989
 31
0.0
  0
LINE
  8
0
 62
     0
 10
296.38
 20
43.6989
 30
0.0
 11
310.37
 21
43.6989
 31
0.0
  0
LINE
  8
0
 62
     0
 10
310.37
 20
43.6989
 30
0.0
 11
310.37
 21
29.7077
 31
0.0
  0
LINE
  8
0
 62
     0
 10
310.37
 20
29.7077
 30
0.0
 11
296.38
 21
29.7077
 31
0.0
  0
LINE
  8
0
 62
     0
 10
296.38
 20
29.7077
 30
0.0
 11
296.38
 21
43.6989
 31
0.0
  0
LINE
  8
0
 62
     0
 10
277.33
 20
43.6989
 30
0.0
 11
291.32
 21
43.6989
 31
0.0
  0
LINE
  8
0
 62
     0
 10
291.32
 20
43.6989
 30
0.0
 11
291.32
 21
29.7077
 31
0.0
  0
LINE
  8
0
 62
     0
 10
291.32
 20
29.7077
 30
0.0
 11
277.33
 21
29.7077
 31
0.0
  0
LINE
  8
0
 62
     0
 10
277.33
 20
29.7077
 30
0.0
 11
277.33
 21
43.6989
 31
0.0
  0
LINE
  8
0
 62
     0
 10
251.137
 20
43.6989
 30
0.0
 11
265.126
 21
43.6989
 31
0.0
  0
LINE
  8
0
 62
     0
 10
265.126
 20
43.6989
 30
0.0
 11
265.126
 21
29.7077
 31
0.0
  0
LINE
  8
0
 62
     0
 10
265.126
 20
29.7077
 30
0.0
 11
251.137
 21
29.7077
 31
0.0
  0
LINE
  8
0
 62
     0
 10
251.137
 20
29.7077
 30
0.0
 11
251.137
 21
43.6989
 31
0.0
  0
LINE
  8
0
 62
     0
 10
224.943
 20
43.6989
 30
0.0
 11
238.933
 21
43.6989
 31
0.0
  0
LINE
  8
0
 62
     0
 10
238.933
 20
43.6989
 30
0.0
 11
238.933
 21
29.7077
 31
0.0
  0
LINE
  8
0
 62
     0
 10
238.933
 20
29.7077
 30
0.0
 11
224.943
 21
29.7077
 31
0.0
  0
LINE
  8
0
 62
     0
 10
224.943
 20
29.7077
 30
0.0
 11
224.943
 21
43.6989
 31
0.0
  0
LINE
  8
0
 62
     0
 10
205.893
 20
43.6989
 30
0.0
 11
219.883
 21
43.6989
 31
0.0
  0
LINE
  8
0
 62
     0
 10
219.883
 20
43.6989
 30
0.0
 11
219.883
 21
29.7077
 31
0.0
  0
LINE
  8
0
 62
     0
 10
219.883
 20
29.7077
 30
0.0
 11
205.893
 21
29.7077
 31
0.0
  0
LINE
  8
0
 62
     0
 10
205.893
 20
29.7077
 30
0.0
 11
205.893
 21
43.6989
 31
0.0
  0
LINE
  8
0
 62
     0
 10
186.843
 20
43.6989
 30
0.0
 11
200.833
 21
43.6989
 31
0.0
  0
LINE
  8
0
 62
     0
 10
200.833
 20
43.6989
 30
0.0
 11
200.833
 21
29.7077
 31
0.0
  0
LINE
  8
0
 62
     0
 10
200.833
 20
29.7077
 30
0.0
 11
186.843
 21
29.7077
 31
0.0
  0
LINE
  8
0
 62
     0
 10
186.843
 20
29.7077
 30
0.0
 11
186.843
 21
43.6989
 31
0.0
  0
LINE
  8
0
 62
     0
 10
167.793
 20
43.6989
 30
0.0
 11
181.783
 21
43.6989
 31
0.0
  0
LINE
  8
0
 62
     0
 10
181.783
 20
43.6989
 30
0.0
 11
181.783
 21
29.7077
 31
0.0
  0
LINE
  8
0
 62
     0
 10
181.783
 20
29.7077
 30
0.0
 11
167.793
 21
29.7077
 31
0.0
  0
LINE
  8
0
 62
     0
 10
167.793
 20
29.7077
 30
0.0
 11
167.793
 21
43.6989
 31
0.0
  0
LINE
  8
0
 62
     0
 10
148.743
 20
43.6989
 30
0.0
 11
162.733
 21
43.6989
 31
0.0
  0
LINE
  8
0
 62
     0
 10
162.733
 20
43.6989
 30
0.0
 11
162.733
 21
29.7077
 31
0.0
  0
LINE
  8
0
 62
     0
 10
162.733
 20
29.7077
 30
0.0
 11
148.743
 21
29.7077
 31
0.0
  0
LINE
  8
0
 62
     0
 10
148.743
 20
29.7077
 30
0.0
 11
148.743
 21
43.6989
 31
0.0
  0
LINE
  8
0
 62
     0
 10
129.693
 20
43.6989
 30
0.0
 11
143.683
 21
43.6989
 31
0.0
  0
LINE
  8
0
 62
     0
 10
143.683
 20
43.6989
 30
0.0
 11
143.683
 21
29.7077
 31
0.0
  0
LINE
  8
0
 62
     0
 10
143.683
 20
29.7077
 30
0.0
 11
129.693
 21
29.7077
 31
0.0
  0
LINE
  8
0
 62
     0
 10
129.693
 20
29.7077
 30
0.0
 11
129.693
 21
43.6989
 31
0.0
  0
LINE
  8
0
 62
     0
 10
110.643
 20
43.6989
 30
0.0
 11
124.633
 21
43.6989
 31
0.0
  0
LINE
  8
0
 62
     0
 10
124.633
 20
43.6989
 30
0.0
 11
124.633
 21
29.7077
 31
0.0
  0
LINE
  8
0
 62
     0
 10
124.633
 20
29.7077
 30
0.0
 11
110.643
 21
29.7077
 31
0.0
  0
LINE
  8
0
 62
     0
 10
110.643
 20
29.7077
 30
0.0
 11
110.643
 21
43.6989
 31
0.0
  0
LINE
  8
0
 62
     0
 10
91.5928
 20
43.6989
 30
0.0
 11
105.583
 21
43.6989
 31
0.0
  0
LINE
  8
0
 62
     0
 10
105.583
 20
43.6989
 30
0.0
 11
105.583
 21
29.7077
 31
0.0
  0
LINE
  8
0
 62
     0
 10
105.583
 20
29.7077
 30
0.0
 11
91.5928
 21
29.7077
 31
0.0
  0
LINE
  8
0
 62
     0
 10
91.5928
 20
29.7077
 30
0.0
 11
91.5928
 21
43.6989
 31
0.0
  0
LINE
  8
0
 62
     0
 10
72.5428
 20
43.6989
 30
0.0
 11
86.5325
 21
43.6989
 31
0.0
  0
LINE
  8
0
 62
     0
 10
86.5325
 20
43.6989
 30
0.0
 11
86.5325
 21
29.7077
 31
0.0
  0
LINE
  8
0
 62
     0
 10
86.5325
 20
29.7077
 30
0.0
 11
72.5428
 21
29.7077
 31
0.0
  0
LINE
  8
0
 62
     0
 10
72.5428
 20
29.7077
 30
0.0
 11
72.5428
 21
43.6989
 31
0.0
  0
LINE
  8
0
 62
     0
 10
53.4928
 20
43.6989
 30
0.0
 11
67.4825
 21
43.6989
 31
0.0
  0
LINE
  8
0
 62
     0
 10
67.4825
 20
43.6989
 30
0.0
 11
67.4825
 21
29.7077
 31
0.0
  0
LINE
  8
0
 62
     0
 10
67.4825
 20
29.7077
 30
0.0
 11
53.4928
 21
29.7077
 31
0.0
  0
LINE
  8
0
 62
     0
 10
53.4928
 20
29.7077
 30
0.0
 11
53.4928
 21
43.6989
 31
0.0
  0
LINE
  8
0
 62
     0
 10
265.424
 20
62.7489
 30
0.0
 11
265.424
 21
58.0485
 31
0.0
  0
LINE
  8
0
 62
     0
 10
265.424
 20
58.0485
 30
0.0
 11
263.889
 21
58.0485
 31
0.0
  0
LINE
  8
0
 62
     0
 10
263.889
 20
58.0485
 30
0.0
 11
263.889
 21
61.2786
 31
0.0
  0
LINE
  8
0
 62
     0
 10
263.889
 20
61.2786
 30
0.0
 11
262.164
 21
61.2786
 31
0.0
  0
LINE
  8
0
 62
     0
 10
262.164
 20
61.2786
 30
0.0
 11
262.164
 21
62.1979
 31
0.0
  0
LINE
  8
0
 62
     0
 10
262.164
 20
62.1979
 30
0.0
 11
258.874
 21
62.1979
 31
0.0
  0
LINE
  8
0
 62
     0
 10
258.874
 20
62.1979
 30
0.0
 11
258.874
 21
61.2786
 31
0.0
  0
LINE
  8
0
 62
     0
 10
258.874
 20
61.2786
 30
0.0
 11
257.149
 21
61.2786
 31
0.0
  0
LINE
  8
0
 62
     0
 10
257.149
 20
61.2786
 30
0.0
 11
257.149
 21
58.0485
 31
0.0
  0
LINE
  8
0
 62
     0
 10
257.149
 20
58.0485
 30
0.0
 11
256.323
 21
58.0485
 31
0.0
  0
LINE
  8
0
 62
     0
 10
256.323
 20
58.0485
 30
0.0
 11
256.323
 21
55.2581
 31
0.0
  0
LINE
  8
0
 62
     0
 10
256.323
 20
55.2581
 30
0.0
 11
257.149
 21
55.2581
 31
0.0
  0
LINE
  8
0
 62
     0
 10
257.149
 20
55.2581
 30
0.0
 11
257.149
 21
48.9878
 31
0.0
  0
LINE
  8
0
 62
     0
 10
257.149
 20
48.9878
 30
0.0
 11
258.874
 21
48.9878
 31
0.0
  0
LINE
  8
0
 62
     0
 10
258.874
 20
48.9878
 30
0.0
 11
258.874
 21
48.0067
 31
0.0
  0
LINE
  8
0
 62
     0
 10
258.874
 20
48.0067
 30
0.0
 11
262.164
 21
48.0067
 31
0.0
  0
LINE
  8
0
 62
     0
 10
262.164
 20
48.0067
 30
0.0
 11
262.164
 21
48.9878
 31
0.0
  0
LINE
  8
0
 62
     0
 10
262.164
 20
48.9878
 30
0.0
 11
263.889
 21
48.9878
 31
0.0
  0
LINE
  8
0
 62
     0
 10
263.889
 20
48.9878
 30
0.0
 11
263.889
 21
53.4568
 31
0.0
  0
LINE
  8
0
 62
     0
 10
263.889
 20
53.4568
 30
0.0
 11
265.424
 21
53.4568
 31
0.0
  0
LINE
  8
0
 62
     0
 10
265.424
 20
53.4568
 30
0.0
 11
265.424
 21
48.7578
 31
0.0
  0
LINE
  8
0
 62
     0
 10
265.424
 20
48.7578
 30
0.0
 11
279.414
 21
48.7578
 31
0.0
  0
LINE
  8
0
 62
     0
 10
279.414
 20
48.7578
 30
0.0
 11
279.414
 21
53.4568
 31
0.0
  0
LINE
  8
0
 62
     0
 10
279.414
 20
53.4568
 30
0.0
 11
280.949
 21
53.4568
 31
0.0
  0
LINE
  8
0
 62
     0
 10
280.949
 20
53.4568
 30
0.0
 11
280.949
 21
48.9878
 31
0.0
  0
LINE
  8
0
 62
     0
 10
280.949
 20
48.9878
 30
0.0
 11
282.673
 21
48.9878
 31
0.0
  0
LINE
  8
0
 62
     0
 10
282.673
 20
48.9878
 30
0.0
 11
282.673
 21
48.0067
 31
0.0
  0
LINE
  8
0
 62
     0
 10
282.673
 20
48.0067
 30
0.0
 11
285.963
 21
48.0067
 31
0.0
  0
LINE
  8
0
 62
     0
 10
285.963
 20
48.0067
 30
0.0
 11
285.963
 21
48.9878
 31
0.0
  0
LINE
  8
0
 62
     0
 10
285.963
 20
48.9878
 30
0.0
 11
287.689
 21
48.9878
 31
0.0
  0
LINE
  8
0
 62
     0
 10
287.689
 20
48.9878
 30
0.0
 11
287.689
 21
55.2581
 31
0.0
  0
LINE
  8
0
 62
     0
 10
287.689
 20
55.2581
 30
0.0
 11
288.513
 21
55.2581
 31
0.0
  0
LINE
  8
0
 62
     0
 10
288.513
 20
55.2581
 30
0.0
 11
288.513
 21
58.0485
 31
0.0
  0
LINE
  8
0
 62
     0
 10
288.513
 20
58.0485
 30
0.0
 11
287.689
 21
58.0485
 31
0.0
  0
LINE
  8
0
 62
     0
 10
287.689
 20
58.0485
 30
0.0
 11
287.689
 21
61.2786
 31
0.0
  0
LINE
  8
0
 62
     0
 10
287.689
 20
61.2786
 30
0.0
 11
285.963
 21
61.2786
 31
0.0
  0
LINE
  8
0
 62
     0
 10
285.963
 20
61.2786
 30
0.0
 11
285.963
 21
62.1979
 31
0.0
  0
LINE
  8
0
 62
     0
 10
285.963
 20
62.1979
 30
0.0
 11
282.673
 21
62.1979
 31
0.0
  0
LINE
  8
0
 62
     0
 10
282.673
 20
62.1979
 30
0.0
 11
282.673
 21
61.2786
 31
0.0
  0
LINE
  8
0
 62
     0
 10
282.673
 20
61.2786
 30
0.0
 11
280.949
 21
61.2786
 31
0.0
  0
LINE
  8
0
 62
     0
 10
280.949
 20
61.2786
 30
0.0
 11
280.949
 21
58.0485
 31
0.0
  0
LINE
  8
0
 62
     0
 10
280.949
 20
58.0485
 30
0.0
 11
279.414
 21
58.0485
 31
0.0
  0
LINE
  8
0
 62
     0
 10
279.414
 20
58.0485
 30
0.0
 11
279.414
 21
62.7489
 31
0.0
  0
LINE
  8
0
 62
     0
 10
279.414
 20
62.7489
 30
0.0
 11
265.424
 21
62.7489
 31
0.0
  0
LINE
  8
0
 62
     0
 10
296.38
 20
62.7489
 30
0.0
 11
310.37
 21
62.7489
 31
0.0
  0
LINE
  8
0
 62
     0
 10
310.37
 20
62.7489
 30
0.0
 11
310.37
 21
48.7578
 31
0.0
  0
LINE
  8
0
 62
     0
 10
310.37
 20
48.7578
 30
0.0
 11
296.38
 21
48.7578
 31
0.0
  0
LINE
  8
0
 62
     0
 10
296.38
 20
48.7578
 30
0.0
 11
296.38
 21
62.7489
 31
0.0
  0
LINE
  8
0
 62
     0
 10
234.468
 20
62.7489
 30
0.0
 11
248.458
 21
62.7489
 31
0.0
  0
LINE
  8
0
 62
     0
 10
248.458
 20
62.7489
 30
0.0
 11
248.458
 21
48.7578
 31
0.0
  0
LINE
  8
0
 62
     0
 10
248.458
 20
48.7578
 30
0.0
 11
234.468
 21
48.7578
 31
0.0
  0
LINE
  8
0
 62
     0
 10
234.468
 20
48.7578
 30
0.0
 11
234.468
 21
62.7489
 31
0.0
  0
LINE
  8
0
 62
     0
 10
215.418
 20
62.7489
 30
0.0
 11
229.408
 21
62.7489
 31
0.0
  0
LINE
  8
0
 62
     0
 10
229.408
 20
62.7489
 30
0.0
 11
229.408
 21
48.7578
 31
0.0
  0
LINE
  8
0
 62
     0
 10
229.408
 20
48.7578
 30
0.0
 11
215.418
 21
48.7578
 31
0.0
  0
LINE
  8
0
 62
     0
 10
215.418
 20
48.7578
 30
0.0
 11
215.418
 21
62.7489
 31
0.0
  0
LINE
  8
0
 62
     0
 10
196.368
 20
62.7489
 30
0.0
 11
210.358
 21
62.7489
 31
0.0
  0
LINE
  8
0
 62
     0
 10
210.358
 20
62.7489
 30
0.0
 11
210.358
 21
48.7578
 31
0.0
  0
LINE
  8
0
 62
     0
 10
210.358
 20
48.7578
 30
0.0
 11
196.368
 21
48.7578
 31
0.0
  0
LINE
  8
0
 62
     0
 10
196.368
 20
48.7578
 30
0.0
 11
196.368
 21
62.7489
 31
0.0
  0
LINE
  8
0
 62
     0
 10
177.318
 20
62.7489
 30
0.0
 11
191.308
 21
62.7489
 31
0.0
  0
LINE
  8
0
 62
     0
 10
191.308
 20
62.7489
 30
0.0
 11
191.308
 21
48.7578
 31
0.0
  0
LINE
  8
0
 62
     0
 10
191.308
 20
48.7578
 30
0.0
 11
177.318
 21
48.7578
 31
0.0
  0
LINE
  8
0
 62
     0
 10
177.318
 20
48.7578
 30
0.0
 11
177.318
 21
62.7489
 31
0.0
  0
LINE
  8
0
 62
     0
 10
158.268
 20
62.7489
 30
0.0
 11
172.258
 21
62.7489
 31
0.0
  0
LINE
  8
0
 62
     0
 10
172.258
 20
62.7489
 30
0.0
 11
172.258
 21
48.7578
 31
0.0
  0
LINE
  8
0
 62
     0
 10
172.258
 20
48.7578
 30
0.0
 11
158.268
 21
48.7578
 31
0.0
  0
LINE
  8
0
 62
     0
 10
158.268
 20
48.7578
 30
0.0
 11
158.268
 21
62.7489
 31
0.0
  0
LINE
  8
0
 62
     0
 10
139.218
 20
62.7489
 30
0.0
 11
153.208
 21
62.7489
 31
0.0
  0
LINE
  8
0
 62
     0
 10
153.208
 20
62.7489
 30
0.0
 11
153.208
 21
48.7578
 31
0.0
  0
LINE
  8
0
 62
     0
 10
153.208
 20
48.7578
 30
0.0
 11
139.218
 21
48.7578
 31
0.0
  0
LINE
  8
0
 62
     0
 10
139.218
 20
48.7578
 30
0.0
 11
139.218
 21
62.7489
 31
0.0
  0
LINE
  8
0
 62
     0
 10
120.168
 20
62.7489
 30
0.0
 11
134.158
 21
62.7489
 31
0.0
  0
LINE
  8
0
 62
     0
 10
134.158
 20
62.7489
 30
0.0
 11
134.158
 21
48.7578
 31
0.0
  0
LINE
  8
0
 62
     0
 10
134.158
 20
48.7578
 30
0.0
 11
120.168
 21
48.7578
 31
0.0
  0
LINE
  8
0
 62
     0
 10
120.168
 20
48.7578
 30
0.0
 11
120.168
 21
62.7489
 31
0.0
  0
LINE
  8
0
 62
     0
 10
101.118
 20
62.7489
 30
0.0
 11
115.108
 21
62.7489
 31
0.0
  0
LINE
  8
0
 62
     0
 10
115.108
 20
62.7489
 30
0.0
 11
115.108
 21
48.7578
 31
0.0
  0
LINE
  8
0
 62
     0
 10
115.108
 20
48.7578
 30
0.0
 11
101.118
 21
48.7578
 31
0.0
  0
LINE
  8
0
 62
     0
 10
101.118
 20
48.7578
 30
0.0
 11
101.118
 21
62.7489
 31
0.0
  0
LINE
  8
0
 62
     0
 10
82.0678
 20
62.7489
 30
0.0
 11
96.0575
 21
62.7489
 31
0.0
  0
LINE
  8
0
 62
     0
 10
96.0575
 20
62.7489
 30
0.0
 11
96.0575
 21
48.7578
 31
0.0
  0
LINE
  8
0
 62
     0
 10
96.0575
 20
48.7578
 30
0.0
 11
82.0678
 21
48.7578
 31
0.0
  0
LINE
  8
0
 62
     0
 10
82.0678
 20
48.7578
 30
0.0
 11
82.0678
 21
62.7489
 31
0.0
  0
LINE
  8
0
 62
     0
 10
63.0178
 20
62.7489
 30
0.0
 11
77.0075
 21
62.7489
 31
0.0
  0
LINE
  8
0
 62
     0
 10
77.0075
 20
62.7489
 30
0.0
 11
77.0075
 21
48.7578
 31
0.0
  0
LINE
  8
0
 62
     0
 10
77.0075
 20
48.7578
 30
0.0
 11
63.0178
 21
48.7578
 31
0.0
  0
LINE
  8
0
 62
     0
 10
63.0178
 20
48.7578
 30
0.0
 11
63.0178
 21
62.7489
 31
0.0
  0
LINE
  8
0
 62
     0
 10
43.9678
 20
62.7489
 30
0.0
 11
57.9575
 21
62.7489
 31
0.0
  0
LINE
  8
0
 62
     0
 10
57.9575
 20
62.7489
 30
0.0
 11
57.9575
 21
48.7578
 31
0.0
  0
LINE
  8
0
 62
     0
 10
57.9575
 20
48.7578
 30
0.0
 11
43.9678
 21
48.7578
 31
0.0
  0
LINE
  8
0
 62
     0
 10
43.9678
 20
48.7578
 30
0.0
 11
43.9678
 21
62.7489
 31
0.0
  0
LINE
  8
0
 62
     0
 10
17.7739
 20
62.7489
 30
0.0
 11
31.7638
 21
62.7489
 31
0.0
  0
LINE
  8
0
 62
     0
 10
31.7638
 20
62.7489
 30
0.0
 11
31.7638
 21
48.7578
 31
0.0
  0
LINE
  8
0
 62
     0
 10
31.7638
 20
48.7578
 30
0.0
 11
17.7739
 21
48.7578
 31
0.0
  0
LINE
  8
0
 62
     0
 10
17.7739
 20
48.7578
 30
0.0
 11
17.7739
 21
62.7489
 31
0.0
  0
LINE
  8
0
 62
     0
 10
296.38
 20
81.7975
 30
0.0
 11
310.37
 21
81.7975
 31
0.0
  0
LINE
  8
0
 62
     0
 10
310.37
 20
81.7975
 30
0.0
 11
310.37
 21
67.8078
 31
0.0
  0
LINE
  8
0
 62
     0
 10
310.37
 20
67.8078
 30
0.0
 11
296.38
 21
67.8078
 31
0.0
  0
LINE
  8
0
 62
     0
 10
296.38
 20
67.8078
 30
0.0
 11
296.38
 21
81.7975
 31
0.0
  0
LINE
  8
0
 62
     0
 10
272.568
 20
81.7975
 30
0.0
 11
286.558
 21
81.7975
 31
0.0
  0
LINE
  8
0
 62
     0
 10
286.558
 20
81.7975
 30
0.0
 11
286.558
 21
67.8078
 31
0.0
  0
LINE
  8
0
 62
     0
 10
286.558
 20
67.8078
 30
0.0
 11
272.568
 21
67.8078
 31
0.0
  0
LINE
  8
0
 62
     0
 10
272.568
 20
67.8078
 30
0.0
 11
272.568
 21
81.7975
 31
0.0
  0
LINE
  8
0
 62
     0
 10
248.755
 20
81.7975
 30
0.0
 11
262.745
 21
81.7975
 31
0.0
  0
LINE
  8
0
 62
     0
 10
262.745
 20
81.7975
 30
0.0
 11
262.745
 21
67.8078
 31
0.0
  0
LINE
  8
0
 62
     0
 10
262.745
 20
67.8078
 30
0.0
 11
248.755
 21
67.8078
 31
0.0
  0
LINE
  8
0
 62
     0
 10
248.755
 20
67.8078
 30
0.0
 11
248.755
 21
81.7975
 31
0.0
  0
LINE
  8
0
 62
     0
 10
229.705
 20
81.7975
 30
0.0
 11
243.695
 21
81.7975
 31
0.0
  0
LINE
  8
0
 62
     0
 10
243.695
 20
81.7975
 30
0.0
 11
243.695
 21
67.8078
 31
0.0
  0
LINE
  8
0
 62
     0
 10
243.695
 20
67.8078
 30
0.0
 11
229.705
 21
67.8078
 31
0.0
  0
LINE
  8
0
 62
     0
 10
229.705
 20
67.8078
 30
0.0
 11
229.705
 21
81.7975
 31
0.0
  0
LINE
  8
0
 62
     0
 10
210.655
 20
81.7975
 30
0.0
 11
224.645
 21
81.7975
 31
0.0
  0
LINE
  8
0
 62
     0
 10
224.645
 20
81.7975
 30
0.0
 11
224.645
 21
67.8078
 31
0.0
  0
LINE
  8
0
 62
     0
 10
224.645
 20
67.8078
 30
0.0
 11
210.655
 21
67.8078
 31
0.0
  0
LINE
  8
0
 62
     0
 10
210.655
 20
67.8078
 30
0.0
 11
210.655
 21
81.7975
 31
0.0
  0
LINE
  8
0
 62
     0
 10
191.605
 20
81.7975
 30
0.0
 11
205.595
 21
81.7975
 31
0.0
  0
LINE
  8
0
 62
     0
 10
205.595
 20
81.7975
 30
0.0
 11
205.595
 21
67.8078
 31
0.0
  0
LINE
  8
0
 62
     0
 10
205.595
 20
67.8078
 30
0.0
 11
191.605
 21
67.8078
 31
0.0
  0
LINE
  8
0
 62
     0
 10
191.605
 20
67.8078
 30
0.0
 11
191.605
 21
81.7975
 31
0.0
  0
LINE
  8
0
 62
     0
 10
172.555
 20
81.7975
 30
0.0
 11
186.545
 21
81.7975
 31
0.0
  0
LINE
  8
0
 62
     0
 10
186.545
 20
81.7975
 30
0.0
 11
186.545
 21
67.8078
 31
0.0
  0
LINE
  8
0
 62
     0
 10
186.545
 20
67.8078
 30
0.0
 11
172.555
 21
67.8078
 31
0.0
  0
LINE
  8
0
 62
     0
 10
172.555
 20
67.8078
 30
0.0
 11
172.555
 21
81.7975
 31
0.0
  0
LINE
  8
0
 62
     0
 10
153.505
 20
81.7975
 30
0.0
 11
167.495
 21
81.7975
 31
0.0
  0
LINE
  8
0
 62
     0
 10
167.495
 20
81.7975
 30
0.0
 11
167.495
 21
67.8078
 31
0.0
  0
LINE
  8
0
 62
     0
 10
167.495
 20
67.8078
 30
0.0
 11
153.505
 21
67.8078
 31
0.0
  0
LINE
  8
0
 62
     0
 10
153.505
 20
67.8078
 30
0.0
 11
153.505
 21
81.7975
 31
0.0
  0
LINE
  8
0
 62
     0
 10
134.454
 20
81.7975
 30
0.0
 11
148.445
 21
81.7975
 31
0.0
  0
LINE
  8
0
 62
     0
 10
148.445
 20
81.7975
 30
0.0
 11
148.445
 21
67.8078
 31
0.0
  0
LINE
  8
0
 62
     0
 10
148.445
 20
67.8078
 30
0.0
 11
134.454
 21
67.8078
 31
0.0
  0
LINE
  8
0
 62
     0
 10
134.454
 20
67.8078
 30
0.0
 11
134.454
 21
81.7975
 31
0.0
  0
LINE
  8
0
 62
     0
 10
115.404
 20
81.7975
 30
0.0
 11
129.395
 21
81.7975
 31
0.0
  0
LINE
  8
0
 62
     0
 10
129.395
 20
81.7975
 30
0.0
 11
129.395
 21
67.8078
 31
0.0
  0
LINE
  8
0
 62
     0
 10
129.395
 20
67.8078
 30
0.0
 11
115.404
 21
67.8078
 31
0.0
  0
LINE
  8
0
 62
     0
 10
115.404
 20
67.8078
 30
0.0
 11
115.404
 21
81.7975
 31
0.0
  0
LINE
  8
0
 62
     0
 10
96.3538
 20
81.7975
 30
0.0
 11
110.345
 21
81.7975
 31
0.0
  0
LINE
  8
0
 62
     0
 10
110.345
 20
81.7975
 30
0.0
 11
110.345
 21
67.8078
 31
0.0
  0
LINE
  8
0
 62
     0
 10
110.345
 20
67.8078
 30
0.0
 11
96.3538
 21
67.8078
 31
0.0
  0
LINE
  8
0
 62
     0
 10
96.3538
 20
67.8078
 30
0.0
 11
96.3538
 21
81.7975
 31
0.0
  0
LINE
  8
0
 62
     0
 10
77.3053
 20
81.7975
 30
0.0
 11
91.295
 21
81.7975
 31
0.0
  0
LINE
  8
0
 62
     0
 10
91.295
 20
81.7975
 30
0.0
 11
91.295
 21
67.8078
 31
0.0
  0
LINE
  8
0
 62
     0
 10
91.295
 20
67.8078
 30
0.0
 11
77.3053
 21
67.8078
 31
0.0
  0
LINE
  8
0
 62
     0
 10
77.3053
 20
67.8078
 30
0.0
 11
77.3053
 21
81.7975
 31
0.0
  0
LINE
  8
0
 62
     0
 10
58.2553
 20
81.7975
 30
0.0
 11
72.245
 21
81.7975
 31
0.0
  0
LINE
  8
0
 62
     0
 10
72.245
 20
81.7975
 30
0.0
 11
72.245
 21
67.8078
 31
0.0
  0
LINE
  8
0
 62
     0
 10
72.245
 20
67.8078
 30
0.0
 11
58.2553
 21
67.8078
 31
0.0
  0
LINE
  8
0
 62
     0
 10
58.2553
 20
67.8078
 30
0.0
 11
58.2553
 21
81.7975
 31
0.0
  0
LINE
  8
0
 62
     0
 10
39.2053
 20
81.7975
 30
0.0
 11
53.195
 21
81.7975
 31
0.0
  0
LINE
  8
0
 62
     0
 10
53.195
 20
81.7975
 30
0.0
 11
53.195
 21
67.8078
 31
0.0
  0
LINE
  8
0
 62
     0
 10
53.195
 20
67.8078
 30
0.0
 11
39.2053
 21
67.8078
 31
0.0
  0
LINE
  8
0
 62
     0
 10
39.2053
 20
67.8078
 30
0.0
 11
39.2053
 21
81.7975
 31
0.0
  0
LINE
  8
0
 62
     0
 10
15.3927
 20
81.7975
 30
0.0
 11
29.3825
 21
81.7975
 31
0.0
  0
LINE
  8
0
 62
     0
 10
29.3825
 20
81.7975
 30
0.0
 11
29.3825
 21
67.8078
 31
0.0
  0
LINE
  8
0
 62
     0
 10
29.3825
 20
67.8078
 30
0.0
 11
15.3927
 21
67.8078
 31
0.0
  0
LINE
  8
0
 62
     0
 10
15.3927
 20
67.8078
 30
0.0
 11
15.3927
 21
81.7975
 31
0.0
  0
LINE
  8
0
 62
     0
 10
267.805
 20
100.848
 30
0.0
 11
267.805
 21
96.1471
 31
0.0
  0
LINE
  8
0
 62
     0
 10
267.805
 20
96.1471
 30
0.0
 11
266.27
 21
96.1471
 31
0.0
  0
LINE
  8
0
 62
     0
 10
266.27
 20
96.1471
 30
0.0
 11
266.27
 21
99.3771
 31
0.0
  0
LINE
  8
0
 62
     0
 10
266.27
 20
99.3771
 30
0.0
 11
264.546
 21
99.3771
 31
0.0
  0
LINE
  8
0
 62
     0
 10
264.546
 20
99.3771
 30
0.0
 11
264.546
 21
100.298
 31
0.0
  0
LINE
  8
0
 62
     0
 10
264.546
 20
100.298
 30
0.0
 11
261.255
 21
100.298
 31
0.0
  0
LINE
  8
0
 62
     0
 10
261.255
 20
100.298
 30
0.0
 11
261.255
 21
99.3771
 31
0.0
  0
LINE
  8
0
 62
     0
 10
261.255
 20
99.3771
 30
0.0
 11
259.53
 21
99.3771
 31
0.0
  0
LINE
  8
0
 62
     0
 10
259.53
 20
99.3771
 30
0.0
 11
259.53
 21
96.1471
 31
0.0
  0
LINE
  8
0
 62
     0
 10
259.53
 20
96.1471
 30
0.0
 11
258.706
 21
96.1471
 31
0.0
  0
LINE
  8
0
 62
     0
 10
258.706
 20
96.1471
 30
0.0
 11
258.706
 21
93.3581
 31
0.0
  0
LINE
  8
0
 62
     0
 10
258.706
 20
93.3581
 30
0.0
 11
259.53
 21
93.3581
 31
0.0
  0
LINE
  8
0
 62
     0
 10
259.53
 20
93.3581
 30
0.0
 11
259.53
 21
87.0878
 31
0.0
  0
LINE
  8
0
 62
     0
 10
259.53
 20
87.0878
 30
0.0
 11
261.255
 21
87.0878
 31
0.0
  0
LINE
  8
0
 62
     0
 10
261.255
 20
87.0878
 30
0.0
 11
261.255
 21
86.1081
 31
0.0
  0
LINE
  8
0
 62
     0
 10
261.255
 20
86.1081
 30
0.0
 11
264.546
 21
86.1081
 31
0.0
  0
LINE
  8
0
 62
     0
 10
264.546
 20
86.1081
 30
0.0
 11
264.546
 21
87.0878
 31
0.0
  0
LINE
  8
0
 62
     0
 10
264.546
 20
87.0878
 30
0.0
 11
266.27
 21
87.0878
 31
0.0
  0
LINE
  8
0
 62
     0
 10
266.27
 20
87.0878
 30
0.0
 11
266.27
 21
91.5568
 31
0.0
  0
LINE
  8
0
 62
     0
 10
266.27
 20
91.5568
 30
0.0
 11
267.805
 21
91.5568
 31
0.0
  0
LINE
  8
0
 62
     0
 10
267.805
 20
91.5568
 30
0.0
 11
267.805
 21
86.8578
 31
0.0
  0
LINE
  8
0
 62
     0
 10
267.805
 20
86.8578
 30
0.0
 11
281.795
 21
86.8578
 31
0.0
  0
LINE
  8
0
 62
     0
 10
281.795
 20
86.8578
 30
0.0
 11
281.795
 21
91.5568
 31
0.0
  0
LINE
  8
0
 62
     0
 10
281.795
 20
91.5568
 30
0.0
 11
283.33
 21
91.5568
 31
0.0
  0
LINE
  8
0
 62
     0
 10
283.33
 20
91.5568
 30
0.0
 11
283.33
 21
87.0878
 31
0.0
  0
LINE
  8
0
 62
     0
 10
283.33
 20
87.0878
 30
0.0
 11
285.055
 21
87.0878
 31
0.0
  0
LINE
  8
0
 62
     0
 10
285.055
 20
87.0878
 30
0.0
 11
285.055
 21
86.1081
 31
0.0
  0
LINE
  8
0
 62
     0
 10
285.055
 20
86.1081
 30
0.0
 11
288.345
 21
86.1081
 31
0.0
  0
LINE
  8
0
 62
     0
 10
288.345
 20
86.1081
 30
0.0
 11
288.345
 21
87.0878
 31
0.0
  0
LINE
  8
0
 62
     0
 10
288.345
 20
87.0878
 30
0.0
 11
290.07
 21
87.0878
 31
0.0
  0
LINE
  8
0
 62
     0
 10
290.07
 20
87.0878
 30
0.0
 11
290.07
 21
93.3581
 31
0.0
  0
LINE
  8
0
 62
     0
 10
290.07
 20
93.3581
 30
0.0
 11
290.896
 21
93.3581
 31
0.0
  0
LINE
  8
0
 62
     0
 10
290.896
 20
93.3581
 30
0.0
 11
290.896
 21
96.1471
 31
0.0
  0
LINE
  8
0
 62
     0
 10
290.896
 20
96.1471
 30
0.0
 11
290.07
 21
96.1471
 31
0.0
  0
LINE
  8
0
 62
     0
 10
290.07
 20
96.1471
 30
0.0
 11
290.07
 21
99.3771
 31
0.0
  0
LINE
  8
0
 62
     0
 10
290.07
 20
99.3771
 30
0.0
 11
288.345
 21
99.3771
 31
0.0
  0
LINE
  8
0
 62
     0
 10
288.345
 20
99.3771
 30
0.0
 11
288.345
 21
100.298
 31
0.0
  0
LINE
  8
0
 62
     0
 10
288.345
 20
100.298
 30
0.0
 11
285.055
 21
100.298
 31
0.0
  0
LINE
  8
0
 62
     0
 10
285.055
 20
100.298
 30
0.0
 11
285.055
 21
99.3771
 31
0.0
  0
LINE
  8
0
 62
     0
 10
285.055
 20
99.3771
 30
0.0
 11
283.33
 21
99.3771
 31
0.0
  0
LINE
  8
0
 62
     0
 10
283.33
 20
99.3771
 30
0.0
 11
283.33
 21
96.1471
 31
0.0
  0
LINE
  8
0
 62
     0
 10
283.33
 20
96.1471
 30
0.0
 11
281.795
 21
96.1471
 31
0.0
  0
LINE
  8
0
 62
     0
 10
281.795
 20
96.1471
 30
0.0
 11
281.795
 21
100.848
 31
0.0
  0
LINE
  8
0
 62
     0
 10
281.795
 20
100.848
 30
0.0
 11
267.805
 21
100.848
 31
0.0
  0
LINE
  8
0
 62
     0
 10
296.38
 20
100.848
 30
0.0
 11
310.37
 21
100.848
 31
0.0
  0
LINE
  8
0
 62
     0
 10
310.37
 20
100.848
 30
0.0
 11
310.37
 21
86.8578
 31
0.0
  0
LINE
  8
0
 62
     0
 10
310.37
 20
86.8578
 30
0.0
 11
296.38
 21
86.8578
 31
0.0
  0
LINE
  8
0
 62
     0
 10
296.38
 20
86.8578
 30
0.0
 11
296.38
 21
100.848
 31
0.0
  0
LINE
  8
0
 62
     0
 10
239.23
 20
100.848
 30
0.0
 11
253.22
 21
100.848
 31
0.0
  0
LINE
  8
0
 62
     0
 10
253.22
 20
100.848
 30
0.0
 11
253.22
 21
86.8578
 31
0.0
  0
LINE
  8
0
 62
     0
 10
253.22
 20
86.8578
 30
0.0
 11
239.23
 21
86.8578
 31
0.0
  0
LINE
  8
0
 62
     0
 10
239.23
 20
86.8578
 30
0.0
 11
239.23
 21
100.848
 31
0.0
  0
LINE
  8
0
 62
     0
 10
220.18
 20
100.848
 30
0.0
 11
234.17
 21
100.848
 31
0.0
  0
LINE
  8
0
 62
     0
 10
234.17
 20
100.848
 30
0.0
 11
234.17
 21
86.8578
 31
0.0
  0
LINE
  8
0
 62
     0
 10
234.17
 20
86.8578
 30
0.0
 11
220.18
 21
86.8578
 31
0.0
  0
LINE
  8
0
 62
     0
 10
220.18
 20
86.8578
 30
0.0
 11
220.18
 21
100.848
 31
0.0
  0
LINE
  8
0
 62
     0
 10
201.13
 20
100.848
 30
0.0
 11
215.12
 21
100.848
 31
0.0
  0
LINE
  8
0
 62
     0
 10
215.12
 20
100.848
 30
0.0
 11
215.12
 21
86.8578
 31
0.0
  0
LINE
  8
0
 62
     0
 10
215.12
 20
86.8578
 30
0.0
 11
201.13
 21
86.8578
 31
0.0
  0
LINE
  8
0
 62
     0
 10
201.13
 20
86.8578
 30
0.0
 11
201.13
 21
100.848
 31
0.0
  0
LINE
  8
0
 62
     0
 10
182.08
 20
100.848
 30
0.0
 11
196.07
 21
100.848
 31
0.0
  0
LINE
  8
0
 62
     0
 10
196.07
 20
100.848
 30
0.0
 11
196.07
 21
86.8578
 31
0.0
  0
LINE
  8
0
 62
     0
 10
196.07
 20
86.8578
 30
0.0
 11
182.08
 21
86.8578
 31
0.0
  0
LINE
  8
0
 62
     0
 10
182.08
 20
86.8578
 30
0.0
 11
182.08
 21
100.848
 31
0.0
  0
LINE
  8
0
 62
     0
 10
163.03
 20
100.848
 30
0.0
 11
177.02
 21
100.848
 31
0.0
  0
LINE
  8
0
 62
     0
 10
177.02
 20
100.848
 30
0.0
 11
177.02
 21
86.8578
 31
0.0
  0
LINE
  8
0
 62
     0
 10
177.02
 20
86.8578
 30
0.0
 11
163.03
 21
86.8578
 31
0.0
  0
LINE
  8
0
 62
     0
 10
163.03
 20
86.8578
 30
0.0
 11
163.03
 21
100.848
 31
0.0
  0
LINE
  8
0
 62
     0
 10
143.98
 20
100.848
 30
0.0
 11
157.97
 21
100.848
 31
0.0
  0
LINE
  8
0
 62
     0
 10
157.97
 20
100.848
 30
0.0
 11
157.97
 21
86.8578
 31
0.0
  0
LINE
  8
0
 62
     0
 10
157.97
 20
86.8578
 30
0.0
 11
143.98
 21
86.8578
 31
0.0
  0
LINE
  8
0
 62
     0
 10
143.98
 20
86.8578
 30
0.0
 11
143.98
 21
100.848
 31
0.0
  0
LINE
  8
0
 62
     0
 10
124.929
 20
100.848
 30
0.0
 11
138.92
 21
100.848
 31
0.0
  0
LINE
  8
0
 62
     0
 10
138.92
 20
100.848
 30
0.0
 11
138.92
 21
86.8578
 31
0.0
  0
LINE
  8
0
 62
     0
 10
138.92
 20
86.8578
 30
0.0
 11
124.929
 21
86.8578
 31
0.0
  0
LINE
  8
0
 62
     0
 10
124.929
 20
86.8578
 30
0.0
 11
124.929
 21
100.848
 31
0.0
  0
LINE
  8
0
 62
     0
 10
105.879
 20
100.848
 30
0.0
 11
119.87
 21
100.848
 31
0.0
  0
LINE
  8
0
 62
     0
 10
119.87
 20
100.848
 30
0.0
 11
119.87
 21
86.8578
 31
0.0
  0
LINE
  8
0
 62
     0
 10
119.87
 20
86.8578
 30
0.0
 11
105.879
 21
86.8578
 31
0.0
  0
LINE
  8
0
 62
     0
 10
105.879
 20
86.8578
 30
0.0
 11
105.879
 21
100.848
 31
0.0
  0
LINE
  8
0
 62
     0
 10
86.8288
 20
100.848
 30
0.0
 11
100.82
 21
100.848
 31
0.0
  0
LINE
  8
0
 62
     0
 10
100.82
 20
100.848
 30
0.0
 11
100.82
 21
86.8578
 31
0.0
  0
LINE
  8
0
 62
     0
 10
100.82
 20
86.8578
 30
0.0
 11
86.8288
 21
86.8578
 31
0.0
  0
LINE
  8
0
 62
     0
 10
86.8288
 20
86.8578
 30
0.0
 11
86.8288
 21
100.848
 31
0.0
  0
LINE
  8
0
 62
     0
 10
67.7788
 20
100.848
 30
0.0
 11
81.77
 21
100.848
 31
0.0
  0
LINE
  8
0
 62
     0
 10
81.77
 20
100.848
 30
0.0
 11
81.77
 21
86.8578
 31
0.0
  0
LINE
  8
0
 62
     0
 10
81.77
 20
86.8578
 30
0.0
 11
67.7788
 21
86.8578
 31
0.0
  0
LINE
  8
0
 62
     0
 10
67.7788
 20
86.8578
 30
0.0
 11
67.7788
 21
100.848
 31
0.0
  0
LINE
  8
0
 62
     0
 10
48.7303
 20
100.848
 30
0.0
 11
62.72
 21
100.848
 31
0.0
  0
LINE
  8
0
 62
     0
 10
62.72
 20
100.848
 30
0.0
 11
62.72
 21
86.8578
 31
0.0
  0
LINE
  8
0
 62
     0
 10
62.72
 20
86.8578
 30
0.0
 11
48.7303
 21
86.8578
 31
0.0
  0
LINE
  8
0
 62
     0
 10
48.7303
 20
86.8578
 30
0.0
 11
48.7303
 21
100.848
 31
0.0
  0
LINE
  8
0
 62
     0
 10
29.6802
 20
100.848
 30
0.0
 11
43.67
 21
100.848
 31
0.0
  0
LINE
  8
0
 62
     0
 10
43.67
 20
100.848
 30
0.0
 11
43.67
 21
86.8578
 31
0.0
  0
LINE
  8
0
 62
     0
 10
43.67
 20
86.8578
 30
0.0
 11
29.6802
 21
86.8578
 31
0.0
  0
LINE
  8
0
 62
     0
 10
29.6802
 20
86.8578
 30
0.0
 11
29.6802
 21
100.848
 31
0.0
  0
LINE
  8
0
 62
     0
 10
10.6302
 20
100.848
 30
0.0
 11
24.62
 21
100.848
 31
0.0
  0
LINE
  8
0
 62
     0
 10
24.62
 20
100.848
 30
0.0
 11
24.62
 21
86.8578
 31
0.0
  0
LINE
  8
0
 62
     0
 10
24.62
 20
86.8578
 30
0.0
 11
10.6302
 21
86.8578
 31
0.0
  0
LINE
  8
0
 62
     0
 10
10.6302
 20
86.8578
 30
0.0
 11
10.6302
 21
100.848
 31
0.0
  0
LINE
  8
0
 62
     0
 10
286.855
 20
119.898
 30
0.0
 11
286.855
 21
115.197
 31
0.0
  0
LINE
  8
0
 62
     0
 10
286.855
 20
115.197
 30
0.0
 11
285.32
 21
115.197
 31
0.0
  0
LINE
  8
0
 62
     0
 10
285.32
 20
115.197
 30
0.0
 11
285.32
 21
118.427
 31
0.0
  0
LINE
  8
0
 62
     0
 10
285.32
 20
118.427
 30
0.0
 11
283.596
 21
118.427
 31
0.0
  0
LINE
  8
0
 62
     0
 10
283.596
 20
118.427
 30
0.0
 11
283.596
 21
119.348
 31
0.0
  0
LINE
  8
0
 62
     0
 10
283.596
 20
119.348
 30
0.0
 11
280.305
 21
119.348
 31
0.0
  0
LINE
  8
0
 62
     0
 10
280.305
 20
119.348
 30
0.0
 11
280.305
 21
118.427
 31
0.0
  0
LINE
  8
0
 62
     0
 10
280.305
 20
118.427
 30
0.0
 11
278.58
 21
118.427
 31
0.0
  0
LINE
  8
0
 62
     0
 10
278.58
 20
118.427
 30
0.0
 11
278.58
 21
115.197
 31
0.0
  0
LINE
  8
0
 62
     0
 10
278.58
 20
115.197
 30
0.0
 11
277.756
 21
115.197
 31
0.0
  0
LINE
  8
0
 62
     0
 10
277.756
 20
115.197
 30
0.0
 11
277.756
 21
112.408
 31
0.0
  0
LINE
  8
0
 62
     0
 10
277.756
 20
112.408
 30
0.0
 11
278.58
 21
112.408
 31
0.0
  0
LINE
  8
0
 62
     0
 10
278.58
 20
112.408
 30
0.0
 11
278.58
 21
106.138
 31
0.0
  0
LINE
  8
0
 62
     0
 10
278.58
 20
106.138
 30
0.0
 11
280.305
 21
106.138
 31
0.0
  0
LINE
  8
0
 62
     0
 10
280.305
 20
106.138
 30
0.0
 11
280.305
 21
105.157
 31
0.0
  0
LINE
  8
0
 62
     0
 10
280.305
 20
105.157
 30
0.0
 11
283.596
 21
105.157
 31
0.0
  0
LINE
  8
0
 62
     0
 10
283.596
 20
105.157
 30
0.0
 11
283.596
 21
106.138
 31
0.0
  0
LINE
  8
0
 62
     0
 10
283.596
 20
106.138
 30
0.0
 11
285.32
 21
106.138
 31
0.0
  0
LINE
  8
0
 62
     0
 10
285.32
 20
106.138
 30
0.0
 11
285.32
 21
110.607
 31
0.0
  0
LINE
  8
0
 62
     0
 10
285.32
 20
110.607
 30
0.0
 11
286.855
 21
110.607
 31
0.0
  0
LINE
  8
0
 62
     0
 10
286.855
 20
110.607
 30
0.0
 11
286.855
 21
105.908
 31
0.0
  0
LINE
  8
0
 62
     0
 10
286.855
 20
105.908
 30
0.0
 11
300.845
 21
105.908
 31
0.0
  0
LINE
  8
0
 62
     0
 10
300.845
 20
105.908
 30
0.0
 11
300.845
 21
110.607
 31
0.0
  0
LINE
  8
0
 62
     0
 10
300.845
 20
110.607
 30
0.0
 11
302.38
 21
110.607
 31
0.0
  0
LINE
  8
0
 62
     0
 10
302.38
 20
110.607
 30
0.0
 11
302.38
 21
106.138
 31
0.0
  0
LINE
  8
0
 62
     0
 10
302.38
 20
106.138
 30
0.0
 11
304.105
 21
106.138
 31
0.0
  0
LINE
  8
0
 62
     0
 10
304.105
 20
106.138
 30
0.0
 11
304.105
 21
105.157
 31
0.0
  0
LINE
  8
0
 62
     0
 10
304.105
 20
105.157
 30
0.0
 11
307.395
 21
105.157
 31
0.0
  0
LINE
  8
0
 62
     0
 10
307.395
 20
105.157
 30
0.0
 11
307.395
 21
106.138
 31
0.0
  0
LINE
  8
0
 62
     0
 10
307.395
 20
106.138
 30
0.0
 11
309.12
 21
106.138
 31
0.0
  0
LINE
  8
0
 62
     0
 10
309.12
 20
106.138
 30
0.0
 11
309.12
 21
112.408
 31
0.0
  0
LINE
  8
0
 62
     0
 10
309.12
 20
112.408
 30
0.0
 11
309.946
 21
112.408
 31
0.0
  0
LINE
  8
0
 62
     0
 10
309.946
 20
112.408
 30
0.0
 11
309.946
 21
115.197
 31
0.0
  0
LINE
  8
0
 62
     0
 10
309.946
 20
115.197
 30
0.0
 11
309.12
 21
115.197
 31
0.0
  0
LINE
  8
0
 62
     0
 10
309.12
 20
115.197
 30
0.0
 11
309.12
 21
118.427
 31
0.0
  0
LINE
  8
0
 62
     0
 10
309.12
 20
118.427
 30
0.0
 11
307.395
 21
118.427
 31
0.0
  0
LINE
  8
0
 62
     0
 10
307.395
 20
118.427
 30
0.0
 11
307.395
 21
119.348
 31
0.0
  0
LINE
  8
0
 62
     0
 10
307.395
 20
119.348
 30
0.0
 11
304.105
 21
119.348
 31
0.0
  0
LINE
  8
0
 62
     0
 10
304.105
 20
119.348
 30
0.0
 11
304.105
 21
118.427
 31
0.0
  0
LINE
  8
0
 62
     0
 10
304.105
 20
118.427
 30
0.0
 11
302.38
 21
118.427
 31
0.0
  0
LINE
  8
0
 62
     0
 10
302.38
 20
118.427
 30
0.0
 11
302.38
 21
115.197
 31
0.0
  0
LINE
  8
0
 62
     0
 10
302.38
 20
115.197
 30
0.0
 11
300.845
 21
115.197
 31
0.0
  0
LINE
  8
0
 62
     0
 10
300.845
 20
115.197
 30
0.0
 11
300.845
 21
119.898
 31
0.0
  0
LINE
  8
0
 62
     0
 10
300.845
 20
119.898
 30
0.0
 11
286.855
 21
119.898
 31
0.0
  0
LINE
  8
0
 62
     0
 10
258.28
 20
119.898
 30
0.0
 11
272.27
 21
119.898
 31
0.0
  0
LINE
  8
0
 62
     0
 10
272.27
 20
119.898
 30
0.0
 11
272.27
 21
105.908
 31
0.0
  0
LINE
  8
0
 62
     0
 10
272.27
 20
105.908
 30
0.0
 11
258.28
 21
105.908
 31
0.0
  0
LINE
  8
0
 62
     0
 10
258.28
 20
105.908
 30
0.0
 11
258.28
 21
119.898
 31
0.0
  0
LINE
  8
0
 62
     0
 10
239.23
 20
119.898
 30
0.0
 11
253.22
 21
119.898
 31
0.0
  0
LINE
  8
0
 62
     0
 10
253.22
 20
119.898
 30
0.0
 11
253.22
 21
105.908
 31
0.0
  0
LINE
  8
0
 62
     0
 10
253.22
 20
105.908
 30
0.0
 11
239.23
 21
105.908
 31
0.0
  0
LINE
  8
0
 62
     0
 10
239.23
 20
105.908
 30
0.0
 11
239.23
 21
119.898
 31
0.0
  0
LINE
  8
0
 62
     0
 10
220.18
 20
119.898
 30
0.0
 11
234.17
 21
119.898
 31
0.0
  0
LINE
  8
0
 62
     0
 10
234.17
 20
119.898
 30
0.0
 11
234.17
 21
105.908
 31
0.0
  0
LINE
  8
0
 62
     0
 10
234.17
 20
105.908
 30
0.0
 11
220.18
 21
105.908
 31
0.0
  0
LINE
  8
0
 62
     0
 10
220.18
 20
105.908
 30
0.0
 11
220.18
 21
119.898
 31
0.0
  0
LINE
  8
0
 62
     0
 10
201.13
 20
119.898
 30
0.0
 11
215.12
 21
119.898
 31
0.0
  0
LINE
  8
0
 62
     0
 10
215.12
 20
119.898
 30
0.0
 11
215.12
 21
105.908
 31
0.0
  0
LINE
  8
0
 62
     0
 10
215.12
 20
105.908
 30
0.0
 11
201.13
 21
105.908
 31
0.0
  0
LINE
  8
0
 62
     0
 10
201.13
 20
105.908
 30
0.0
 11
201.13
 21
119.898
 31
0.0
  0
LINE
  8
0
 62
     0
 10
182.08
 20
119.898
 30
0.0
 11
196.07
 21
119.898
 31
0.0
  0
LINE
  8
0
 62
     0
 10
196.07
 20
119.898
 30
0.0
 11
196.07
 21
105.908
 31
0.0
  0
LINE
  8
0
 62
     0
 10
196.07
 20
105.908
 30
0.0
 11
182.08
 21
105.908
 31
0.0
  0
LINE
  8
0
 62
     0
 10
182.08
 20
105.908
 30
0.0
 11
182.08
 21
119.898
 31
0.0
  0
LINE
  8
0
 62
     0
 10
163.03
 20
119.898
 30
0.0
 11
177.02
 21
119.898
 31
0.0
  0
LINE
  8
0
 62
     0
 10
177.02
 20
119.898
 30
0.0
 11
177.02
 21
105.908
 31
0.0
  0
LINE
  8
0
 62
     0
 10
177.02
 20
105.908
 30
0.0
 11
163.03
 21
105.908
 31
0.0
  0
LINE
  8
0
 62
     0
 10
163.03
 20
105.908
 30
0.0
 11
163.03
 21
119.898
 31
0.0
  0
LINE
  8
0
 62
     0
 10
143.98
 20
119.898
 30
0.0
 11
157.97
 21
119.898
 31
0.0
  0
LINE
  8
0
 62
     0
 10
157.97
 20
119.898
 30
0.0
 11
157.97
 21
105.908
 31
0.0
  0
LINE
  8
0
 62
     0
 10
157.97
 20
105.908
 30
0.0
 11
143.98
 21
105.908
 31
0.0
  0
LINE
  8
0
 62
     0
 10
143.98
 20
105.908
 30
0.0
 11
143.98
 21
119.898
 31
0.0
  0
LINE
  8
0
 62
     0
 10
124.929
 20
119.898
 30
0.0
 11
138.92
 21
119.898
 31
0.0
  0
LINE
  8
0
 62
     0
 10
138.92
 20
119.898
 30
0.0
 11
138.92
 21
105.908
 31
0.0
  0
LINE
  8
0
 62
     0
 10
138.92
 20
105.908
 30
0.0
 11
124.929
 21
105.908
 31
0.0
  0
LINE
  8
0
 62
     0
 10
124.929
 20
105.908
 30
0.0
 11
124.929
 21
119.898
 31
0.0
  0
LINE
  8
0
 62
     0
 10
105.879
 20
119.898
 30
0.0
 11
119.87
 21
119.898
 31
0.0
  0
LINE
  8
0
 62
     0
 10
119.87
 20
119.898
 30
0.0
 11
119.87
 21
105.908
 31
0.0
  0
LINE
  8
0
 62
     0
 10
119.87
 20
105.908
 30
0.0
 11
105.879
 21
105.908
 31
0.0
  0
LINE
  8
0
 62
     0
 10
105.879
 20
105.908
 30
0.0
 11
105.879
 21
119.898
 31
0.0
  0
LINE
  8
0
 62
     0
 10
86.8288
 20
119.898
 30
0.0
 11
100.82
 21
119.898
 31
0.0
  0
LINE
  8
0
 62
     0
 10
100.82
 20
119.898
 30
0.0
 11
100.82
 21
105.908
 31
0.0
  0
LINE
  8
0
 62
     0
 10
100.82
 20
105.908
 30
0.0
 11
86.8288
 21
105.908
 31
0.0
  0
LINE
  8
0
 62
     0
 10
86.8288
 20
105.908
 30
0.0
 11
86.8288
 21
119.898
 31
0.0
  0
LINE
  8
0
 62
     0
 10
67.7788
 20
119.898
 30
0.0
 11
81.77
 21
119.898
 31
0.0
  0
LINE
  8
0
 62
     0
 10
81.77
 20
119.898
 30
0.0
 11
81.77
 21
105.908
 31
0.0
  0
LINE
  8
0
 62
     0
 10
81.77
 20
105.908
 30
0.0
 11
67.7788
 21
105.908
 31
0.0
  0
LINE
  8
0
 62
     0
 10
67.7788
 20
105.908
 30
0.0
 11
67.7788
 21
119.898
 31
0.0
  0
LINE
  8
0
 62
     0
 10
48.7303
 20
119.898
 30
0.0
 11
62.72
 21
119.898
 31
0.0
  0
LINE
  8
0
 62
     0
 10
62.72
 20
119.898
 30
0.0
 11
62.72
 21
105.908
 31
0.0
  0
LINE
  8
0
 62
     0
 10
62.72
 20
105.908
 30
0.0
 11
48.7303
 21
105.908
 31
0.0
  0
LINE
  8
0
 62
     0
 10
48.7303
 20
105.908
 30
0.0
 11
48.7303
 21
119.898
 31
0.0
  0
LINE
  8
0
 62
     0
 10
29.6802
 20
119.898
 30
0.0
 11
43.67
 21
119.898
 31
0.0
  0
LINE
  8
0
 62
     0
 10
43.67
 20
119.898
 30
0.0
 11
43.67
 21
105.908
 31
0.0
  0
LINE
  8
0
 62
     0
 10
43.67
 20
105.908
 30
0.0
 11
29.6802
 21
105.908
 31
0.0
  0
LINE
  8
0
 62
     0
 10
29.6802
 20
105.908
 30
0.0
 11
29.6802
 21
119.898
 31
0.0
  0
LINE
  8
0
 62
     0
 10
10.6302
 20
119.898
 30
0.0
 11
24.62
 21
119.898
 31
0.0
  0
LINE
  8
0
 62
     0
 10
24.62
 20
119.898
 30
0.0
 11
24.62
 21
105.908
 31
0.0
  0
LINE
  8
0
 62
     0
 10
24.62
 20
105.908
 30
0.0
 11
10.6302
 21
105.908
 31
0.0
  0
LINE
  8
0
 62
     0
 10
10.6302
 20
105.908
 30
0.0
 11
10.6302
 21
119.898
 31
0.0
  0
LINE
  8
0
 62
     0
 10
317.908
 20
129.445
 30
0.0
 11
317.464
 21
129.219
 31
0.0
  0
LINE
  8
0
 62
     0
 10
317.464
 20
129.219
 30
0.0
 11
317.11
 21
128.866
 31
0.0
  0
LINE
  8
0
 62
     0
 10
317.11
 20
128.866
 30
0.0
 11
316.884
 21
128.421
 31
0.0
  0
LINE
  8
0
 62
     0
 10
316.884
 20
128.421
 30
0.0
 11
316.807
 21
127.927
 31
0.0
  0
LINE
  8
0
 62
     0
 10
316.807
 20
127.927
 30
0.0
 11
316.884
 21
127.435
 31
0.0
  0
LINE
  8
0
 62
     0
 10
316.884
 20
127.435
 30
0.0
 11
317.11
 21
126.99
 31
0.0
  0
LINE
  8
0
 62
     0
 10
317.11
 20
126.99
 30
0.0
 11
317.464
 21
126.638
 31
0.0
  0
LINE
  8
0
 62
     0
 10
317.464
 20
126.638
 30
0.0
 11
317.908
 21
126.412
 31
0.0
  0
LINE
  8
0
 62
     0
 10
317.908
 20
126.412
 30
0.0
 11
318.401
 21
126.331
 31
0.0
  0
LINE
  8
0
 62
     0
 10
318.401
 20
126.331
 30
0.0
 11
318.893
 21
126.412
 31
0.0
  0
LINE
  8
0
 62
     0
 10
318.893
 20
126.412
 30
0.0
 11
319.338
 21
126.638
 31
0.0
  0
LINE
  8
0
 62
     0
 10
319.338
 20
126.638
 30
0.0
 11
319.691
 21
126.99
 31
0.0
  0
LINE
  8
0
 62
     0
 10
319.691
 20
126.99
 30
0.0
 11
319.917
 21
127.435
 31
0.0
  0
LINE
  8
0
 62
     0
 10
319.917
 20
127.435
 30
0.0
 11
319.997
 21
127.927
 31
0.0
  0
LINE
  8
0
 62
     0
 10
319.997
 20
127.927
 30
0.0
 11
319.917
 21
128.421
 31
0.0
  0
LINE
  8
0
 62
     0
 10
319.917
 20
128.421
 30
0.0
 11
319.691
 21
128.866
 31
0.0
  0
LINE
  8
0
 62
     0
 10
319.691
 20
128.866
 30
0.0
 11
319.338
 21
129.219
 31
0.0
  0
LINE
  8
0
 62
     0
 10
319.338
 20
129.219
 30
0.0
 11
318.893
 21
129.445
 31
0.0
  0
LINE
  8
0
 62
     0
 10
318.893
 20
129.445
 30
0.0
 11
318.401
 21
129.522
 31
0.0
  0
LINE
  8
0
 62
     0
 10
318.401
 20
129.522
 30
0.0
 11
317.908
 21
129.445
 31
0.0
  0
LINE
  8
0
 62
     0
 10
212.641
 20
129.445
 30
0.0
 11
212.196
 21
129.219
 31
0.0
  0
LINE
  8
0
 62
     0
 10
212.196
 20
129.219
 30
0.0
 11
211.843
 21
128.866
 31
0.0
  0
LINE
  8
0
 62
     0
 10
211.843
 20
128.866
 30
0.0
 11
211.617
 21
128.421
 31
0.0
  0
LINE
  8
0
 62
     0
 10
211.617
 20
128.421
 30
0.0
 11
211.54
 21
127.927
 31
0.0
  0
LINE
  8
0
 62
     0
 10
211.54
 20
127.927
 30
0.0
 11
211.617
 21
127.435
 31
0.0
  0
LINE
  8
0
 62
     0
 10
211.617
 20
127.435
 30
0.0
 11
211.843
 21
126.99
 31
0.0
  0
LINE
  8
0
 62
     0
 10
211.843
 20
126.99
 30
0.0
 11
212.196
 21
126.638
 31
0.0
  0
LINE
  8
0
 62
     0
 10
212.196
 20
126.638
 30
0.0
 11
212.641
 21
126.412
 31
0.0
  0
LINE
  8
0
 62
     0
 10
212.641
 20
126.412
 30
0.0
 11
213.134
 21
126.331
 31
0.0
  0
LINE
  8
0
 62
     0
 10
213.134
 20
126.331
 30
0.0
 11
213.626
 21
126.412
 31
0.0
  0
LINE
  8
0
 62
     0
 10
213.626
 20
126.412
 30
0.0
 11
214.071
 21
126.638
 31
0.0
  0
LINE
  8
0
 62
     0
 10
214.071
 20
126.638
 30
0.0
 11
214.424
 21
126.99
 31
0.0
  0
LINE
  8
0
 62
     0
 10
214.424
 20
126.99
 30
0.0
 11
214.65
 21
127.435
 31
0.0
  0
LINE
  8
0
 62
     0
 10
214.65
 20
127.435
 30
0.0
 11
214.73
 21
127.927
 31
0.0
  0
LINE
  8
0
 62
     0
 10
214.73
 20
127.927
 30
0.0
 11
214.65
 21
128.421
 31
0.0
  0
LINE
  8
0
 62
     0
 10
214.65
 20
128.421
 30
0.0
 11
214.424
 21
128.866
 31
0.0
  0
LINE
  8
0
 62
     0
 10
214.424
 20
128.866
 30
0.0
 11
214.071
 21
129.219
 31
0.0
  0
LINE
  8
0
 62
     0
 10
214.071
 20
129.219
 30
0.0
 11
213.626
 21
129.445
 31
0.0
  0
LINE
  8
0
 62
     0
 10
213.626
 20
129.445
 30
0.0
 11
213.134
 21
129.522
 31
0.0
  0
LINE
  8
0
 62
     0
 10
213.134
 20
129.522
 30
0.0
 11
212.641
 21
129.445
 31
0.0
  0
LINE
  8
0
 62
     0
 10
107.374
 20
129.445
 30
0.0
 11
106.929
 21
129.219
 31
0.0
  0
LINE
  8
0
 62
     0
 10
106.929
 20
129.219
 30
0.0
 11
106.576
 21
128.866
 31
0.0
  0
LINE
  8
0
 62
     0
 10
106.576
 20
128.866
 30
0.0
 11
106.35
 21
128.421
 31
0.0
  0
LINE
  8
0
 62
     0
 10
106.35
 20
128.421
 30
0.0
 11
106.273
 21
127.927
 31
0.0
  0
LINE
  8
0
 62
     0
 10
106.273
 20
127.927
 30
0.0
 11
106.35
 21
127.435
 31
0.0
  0
LINE
  8
0
 62
     0
 10
106.35
 20
127.435
 30
0.0
 11
106.576
 21
126.99
 31
0.0
  0
LINE
  8
0
 62
     0
 10
106.576
 20
126.99
 30
0.0
 11
106.929
 21
126.638
 31
0.0
  0
LINE
  8
0
 62
     0
 10
106.929
 20
126.638
 30
0.0
 11
107.374
 21
126.412
 31
0.0
  0
LINE
  8
0
 62
     0
 10
107.374
 20
126.412
 30
0.0
 11
107.867
 21
126.331
 31
0.0
  0
LINE
  8
0
 62
     0
 10
107.867
 20
126.331
 30
0.0
 11
108.359
 21
126.412
 31
0.0
  0
LINE
  8
0
 62
     0
 10
108.359
 20
126.412
 30
0.0
 11
108.804
 21
126.638
 31
0.0
  0
LINE
  8
0
 62
     0
 10
108.804
 20
126.638
 30
0.0
 11
109.157
 21
126.99
 31
0.0
  0
LINE
  8
0
 62
     0
 10
109.157
 20
126.99
 30
0.0
 11
109.383
 21
127.435
 31
0.0
  0
LINE
  8
0
 62
     0
 10
109.383
 20
127.435
 30
0.0
 11
109.463
 21
127.927
 31
0.0
  0
LINE
  8
0
 62
     0
 10
109.463
 20
127.927
 30
0.0
 11
109.383
 21
128.421
 31
0.0
  0
LINE
  8
0
 62
     0
 10
109.383
 20
128.421
 30
0.0
 11
109.157
 21
128.866
 31
0.0
  0
LINE
  8
0
 62
     0
 10
109.157
 20
128.866
 30
0.0
 11
108.804
 21
129.219
 31
0.0
  0
LINE
  8
0
 62
     0
 10
108.804
 20
129.219
 30
0.0
 11
108.359
 21
129.445
 31
0.0
  0
LINE
  8
0
 62
     0
 10
108.359
 20
129.445
 30
0.0
 11
107.867
 21
129.522
 31
0.0
  0
LINE
  8
0
 62
     0
 10
107.867
 20
129.522
 30
0.0
 11
107.374
 21
129.445
 31
0.0
  0
LINE
  8
0
 62
     0
 10
2.10702
 20
129.445
 30
0.0
 11
1.66191
 21
129.219
 31
0.0
  0
LINE
  8
0
 62
     0
 10
1.66191
 20
129.219
 30
0.0
 11
1.30914
 21
128.866
 31
0.0
  0
LINE
  8
0
 62
     0
 10
1.30914
 20
128.866
 30
0.0
 11
1.08314
 21
128.421
 31
0.0
  0
LINE
  8
0
 62
     0
 10
1.08314
 20
128.421
 30
0.0
 11
1.00459
 21
127.929
 31
0.0
  0
LINE
  8
0
 62
     0
 10
1.00459
 20
127.929
 30
0.0
 11
1.08314
 21
127.435
 31
0.0
  0
LINE
  8
0
 62
     0
 10
1.08314
 20
127.435
 30
0.0
 11
1.30914
 21
126.99
 31
0.0
  0
LINE
  8
0
 62
     0
 10
1.30914
 20
126.99
 30
0.0
 11
1.66191
 21
126.638
 31
0.0
  0
LINE
  8
0
 62
     0
 10
1.66191
 20
126.638
 30
0.0
 11
2.10702
 21
126.412
 31
0.0
  0
LINE
  8
0
 62
     0
 10
2.10702
 20
126.412
 30
0.0
 11
2.59898
 21
126.333
 31
0.0
  0
LINE
  8
0
 62
     0
 10
2.59898
 20
126.333
 30
0.0
 11
3.09232
 21
126.412
 31
0.0
  0
LINE
  8
0
 62
     0
 10
3.09232
 20
126.412
 30
0.0
 11
3.53741
 21
126.638
 31
0.0
  0
LINE
  8
0
 62
     0
 10
3.53741
 20
126.638
 30
0.0
 11
3.89019
 21
126.99
 31
0.0
  0
LINE
  8
0
 62
     0
 10
3.89019
 20
126.99
 30
0.0
 11
4.11621
 21
127.435
 31
0.0
  0
LINE
  8
0
 62
     0
 10
4.11621
 20
127.435
 30
0.0
 11
4.19474
 21
127.929
 31
0.0
  0
LINE
  8
0
 62
     0
 10
4.19474
 20
127.929
 30
0.0
 11
4.11621
 21
128.421
 31
0.0
  0
LINE
  8
0
 62
     0
 10
4.11621
 20
128.421
 30
0.0
 11
3.89019
 21
128.866
 31
0.0
  0
LINE
  8
0
 62
     0
 10
3.89019
 20
128.866
 30
0.0
 11
3.53741
 21
129.219
 31
0.0
  0
LINE
  8
0
 62
     0
 10
3.53741
 20
129.219
 30
0.0
 11
3.09232
 21
129.445
 31
0.0
  0
LINE
  8
0
 62
     0
 10
3.09232
 20
129.445
 30
0.0
 11
2.59898
 21
129.523
 31
0.0
  0
LINE
  8
0
 62
     0
 10
2.59898
 20
129.523
 30
0.0
 11
2.10702
 21
129.445
 31
0.0
  0
ENDSEC
  0
EOF
