  0
SECTION
  2
HEADER
  9
$ACADVER
  1
AC1009
  9
$EXTMIN
 10
0.0
 20
0.0
 30
0.0
  9
$EXTMAX
 10
1000.0
 20
1000.0
 30
0.0
  9
$FILLMODE
 70
 0
  9
$SPLFRAME
 70
 1
  0
ENDSEC
  0
SECTION
  2
TABLES
  0
TABLE
  2
LAYER
 70
1
  0
LAYER
  2
0
 70
     0
 62
     7
  6
CONTINUOUS
  0
ENDTAB
  0
ENDSEC
  0
SECTION
  2
ENTITIES
  0
LINE
  8
0
 62
     0
 10
317.906
 20
130.433
 30
0.0
 11
318.142
 21
130.423
 31
0.0
  0
LINE
  8
0
 62
     0
 10
318.142
 20
130.423
 30
0.0
 11
318.375
 21
130.397
 31
0.0
  0
LINE
  8
0
 62
     0
 10
318.375
 20
130.397
 30
0.0
 11
318.607
 21
130.35
 31
0.0
  0
LINE
  8
0
 62
     0
 10
318.607
 20
130.35
 30
0.0
 11
318.834
 21
130.286
 31
0.0
  0
LINE
  8
0
 62
     0
 10
318.834
 20
130.286
 30
0.0
 11
319.054
 21
130.204
 31
0.0
  0
LINE
  8
0
 62
     0
 10
319.054
 20
130.204
 30
0.0
 11
319.268
 21
130.106
 31
0.0
  0
LINE
  8
0
 62
     0
 10
319.268
 20
130.106
 30
0.0
 11
319.473
 21
129.99
 31
0.0
  0
LINE
  8
0
 62
     0
 10
319.473
 20
129.99
 30
0.0
 11
319.669
 21
129.861
 31
0.0
  0
LINE
  8
0
 62
     0
 10
319.669
 20
129.861
 30
0.0
 11
319.855
 21
129.715
 31
0.0
  0
LINE
  8
0
 62
     0
 10
319.855
 20
129.715
 30
0.0
 11
320.027
 21
129.555
 31
0.0
  0
LINE
  8
0
 62
     0
 10
320.027
 20
129.555
 30
0.0
 11
320.187
 21
129.381
 31
0.0
  0
LINE
  8
0
 62
     0
 10
320.187
 20
129.381
 30
0.0
 11
320.333
 21
129.197
 31
0.0
  0
LINE
  8
0
 62
     0
 10
320.333
 20
129.197
 30
0.0
 11
320.464
 21
129.001
 31
0.0
  0
LINE
  8
0
 62
     0
 10
320.464
 20
129.001
 30
0.0
 11
320.58
 21
128.794
 31
0.0
  0
LINE
  8
0
 62
     0
 10
320.58
 20
128.794
 30
0.0
 11
320.678
 21
128.58
 31
0.0
  0
LINE
  8
0
 62
     0
 10
320.678
 20
128.58
 30
0.0
 11
320.759
 21
128.36
 31
0.0
  0
LINE
  8
0
 62
     0
 10
320.759
 20
128.36
 30
0.0
 11
320.824
 21
128.133
 31
0.0
  0
LINE
  8
0
 62
     0
 10
320.824
 20
128.133
 30
0.0
 11
320.869
 21
127.903
 31
0.0
  0
LINE
  8
0
 62
     0
 10
320.869
 20
127.903
 30
0.0
 11
320.897
 21
127.669
 31
0.0
  0
LINE
  8
0
 62
     0
 10
320.897
 20
127.669
 30
0.0
 11
320.906
 21
127.433
 31
0.0
  0
LINE
  8
0
 62
     0
 10
320.906
 20
127.433
 30
0.0
 11
320.906
 21
3.12263
 31
0.0
  0
LINE
  8
0
 62
     0
 10
320.906
 20
3.12263
 30
0.0
 11
320.897
 21
2.88561
 31
0.0
  0
LINE
  8
0
 62
     0
 10
320.897
 20
2.88561
 30
0.0
 11
320.869
 21
2.65272
 31
0.0
  0
LINE
  8
0
 62
     0
 10
320.869
 20
2.65272
 30
0.0
 11
320.824
 21
2.42121
 31
0.0
  0
LINE
  8
0
 62
     0
 10
320.824
 20
2.42121
 30
0.0
 11
320.759
 21
2.19384
 31
0.0
  0
LINE
  8
0
 62
     0
 10
320.759
 20
2.19384
 30
0.0
 11
320.678
 21
1.97335
 31
0.0
  0
LINE
  8
0
 62
     0
 10
320.678
 20
1.97335
 30
0.0
 11
320.58
 21
1.75975
 31
0.0
  0
LINE
  8
0
 62
     0
 10
320.58
 20
1.75975
 30
0.0
 11
320.464
 21
1.55443
 31
0.0
  0
LINE
  8
0
 62
     0
 10
320.464
 20
1.55443
 30
0.0
 11
320.333
 21
1.35874
 31
0.0
  0
LINE
  8
0
 62
     0
 10
320.333
 20
1.35874
 30
0.0
 11
320.187
 21
1.17271
 31
0.0
  0
LINE
  8
0
 62
     0
 10
320.187
 20
1.17271
 30
0.0
 11
320.027
 21
1.00046
 31
0.0
  0
LINE
  8
0
 62
     0
 10
320.027
 20
1.00046
 30
0.0
 11
319.855
 21
0.840602
 31
0.0
  0
LINE
  8
0
 62
     0
 10
319.855
 20
0.840602
 30
0.0
 11
319.669
 21
0.694531
 31
0.0
  0
LINE
  8
0
 62
     0
 10
319.669
 20
0.694531
 30
0.0
 11
319.473
 21
0.563619
 31
0.0
  0
LINE
  8
0
 62
     0
 10
319.473
 20
0.563619
 30
0.0
 11
319.268
 21
0.447862
 31
0.0
  0
LINE
  8
0
 62
     0
 10
319.268
 20
0.447862
 30
0.0
 11
319.054
 21
0.350022
 31
0.0
  0
LINE
  8
0
 62
     0
 10
319.054
 20
0.350022
 30
0.0
 11
318.834
 21
0.268718
 31
0.0
  0
LINE
  8
0
 62
     0
 10
318.834
 20
0.268718
 30
0.0
 11
318.607
 21
0.20395
 31
0.0
  0
LINE
  8
0
 62
     0
 10
318.607
 20
0.20395
 30
0.0
 11
318.375
 21
0.158474
 31
0.0
  0
LINE
  8
0
 62
     0
 10
318.375
 20
0.158474
 30
0.0
 11
318.142
 21
0.130914
 31
0.0
  0
LINE
  8
0
 62
     0
 10
318.142
 20
0.130914
 30
0.0
 11
317.906
 21
0.121267
 31
0.0
  0
LINE
  8
0
 62
     0
 10
317.906
 20
0.121267
 30
0.0
 11
3.09507
 21
0.122645
 31
0.0
  0
LINE
  8
0
 62
     0
 10
3.09507
 20
0.122645
 30
0.0
 11
2.85943
 21
0.130914
 31
0.0
  0
LINE
  8
0
 62
     0
 10
2.85943
 20
0.130914
 30
0.0
 11
2.62516
 21
0.158474
 31
0.0
  0
LINE
  8
0
 62
     0
 10
2.62516
 20
0.158474
 30
0.0
 11
2.39503
 21
0.20395
 31
0.0
  0
LINE
  8
0
 62
     0
 10
2.39503
 20
0.20395
 30
0.0
 11
2.16765
 21
0.268718
 31
0.0
  0
LINE
  8
0
 62
     0
 10
2.16765
 20
0.268718
 30
0.0
 11
1.94717
 21
0.350022
 31
0.0
  0
LINE
  8
0
 62
     0
 10
1.94717
 20
0.350022
 30
0.0
 11
1.73357
 21
0.447862
 31
0.0
  0
LINE
  8
0
 62
     0
 10
1.73357
 20
0.447862
 30
0.0
 11
1.52687
 21
0.563619
 31
0.0
  0
LINE
  8
0
 62
     0
 10
1.52687
 20
0.563619
 30
0.0
 11
1.33119
 21
0.694531
 31
0.0
  0
LINE
  8
0
 62
     0
 10
1.33119
 20
0.694531
 30
0.0
 11
1.14653
 21
0.840602
 31
0.0
  0
LINE
  8
0
 62
     0
 10
1.14653
 20
0.840602
 30
0.0
 11
0.972894
 21
1.00046
 31
0.0
  0
LINE
  8
0
 62
     0
 10
0.972894
 20
1.00046
 30
0.0
 11
0.813043
 21
1.17271
 31
0.0
  0
LINE
  8
0
 62
     0
 10
0.813043
 20
1.17271
 30
0.0
 11
0.666972
 21
1.35874
 31
0.0
  0
LINE
  8
0
 62
     0
 10
0.666972
 20
1.35874
 30
0.0
 11
0.537436
 21
1.55443
 31
0.0
  0
LINE
  8
0
 62
     0
 10
0.537436
 20
1.55443
 30
0.0
 11
0.421679
 21
1.75975
 31
0.0
  0
LINE
  8
0
 62
     0
 10
0.421679
 20
1.75975
 30
0.0
 11
0.323839
 21
1.97335
 31
0.0
  0
LINE
  8
0
 62
     0
 10
0.323839
 20
1.97335
 30
0.0
 11
0.241157
 21
2.19384
 31
0.0
  0
LINE
  8
0
 62
     0
 10
0.241157
 20
2.19384
 30
0.0
 11
0.177767
 21
2.42121
 31
0.0
  0
LINE
  8
0
 62
     0
 10
0.177767
 20
2.42121
 30
0.0
 11
0.130914
 21
2.65272
 31
0.0
  0
LINE
  8
0
 62
     0
 10
0.130914
 20
2.65272
 30
0.0
 11
0.104731
 21
2.88561
 31
0.0
  0
LINE
  8
0
 62
     0
 10
0.104731
 20
2.88561
 30
0.0
 11
0.0950846
 21
3.12263
 31
0.0
  0
LINE
  8
0
 62
     0
 10
0.0950846
 20
3.12263
 30
0.0
 11
0.0950846
 21
127.433
 31
0.0
  0
LINE
  8
0
 62
     0
 10
0.0950846
 20
127.433
 30
0.0
 11
0.104731
 21
127.669
 31
0.0
  0
LINE
  8
0
 62
     0
 10
0.104731
 20
127.669
 30
0.0
 11
0.130914
 21
127.903
 31
0.0
  0
LINE
  8
0
 62
     0
 10
0.130914
 20
127.903
 30
0.0
 11
0.177767
 21
128.133
 31
0.0
  0
LINE
  8
0
 62
     0
 10
0.177767
 20
128.133
 30
0.0
 11
0.241157
 21
128.36
 31
0.0
  0
LINE
  8
0
 62
     0
 10
0.241157
 20
128.36
 30
0.0
 11
0.323839
 21
128.58
 31
0.0
  0
LINE
  8
0
 62
     0
 10
0.323839
 20
128.58
 30
0.0
 11
0.421679
 21
128.794
 31
0.0
  0
LINE
  8
0
 62
     0
 10
0.421679
 20
128.794
 30
0.0
 11
0.537436
 21
129.001
 31
0.0
  0
LINE
  8
0
 62
     0
 10
0.537436
 20
129.001
 30
0.0
 11
0.666972
 21
129.197
 31
0.0
  0
LINE
  8
0
 62
     0
 10
0.666972
 20
129.197
 30
0.0
 11
0.813043
 21
129.381
 31
0.0
  0
LINE
  8
0
 62
     0
 10
0.813043
 20
129.381
 30
0.0
 11
0.972894
 21
129.555
 31
0.0
  0
LINE
  8
0
 62
     0
 10
0.972894
 20
129.555
 30
0.0
 11
1.14653
 21
129.715
 31
0.0
  0
LINE
  8
0
 62
     0
 10
1.14653
 20
129.715
 30
0.0
 11
1.33119
 21
129.861
 31
0.0
  0
LINE
  8
0
 62
     0
 10
1.33119
 20
129.861
 30
0.0
 11
1.52687
 21
129.99
 31
0.0
  0
LINE
  8
0
 62
     0
 10
1.52687
 20
129.99
 30
0.0
 11
1.73357
 21
130.106
 31
0.0
  0
LINE
  8
0
 62
     0
 10
1.73357
 20
130.106
 30
0.0
 11
1.94717
 21
130.204
 31
0.0
  0
LINE
  8
0
 62
     0
 10
1.94717
 20
130.204
 30
0.0
 11
2.16765
 21
130.286
 31
0.0
  0
LINE
  8
0
 62
     0
 10
2.16765
 20
130.286
 30
0.0
 11
2.39503
 21
130.35
 31
0.0
  0
LINE
  8
0
 62
     0
 10
2.39503
 20
130.35
 30
0.0
 11
2.62516
 21
130.397
 31
0.0
  0
LINE
  8
0
 62
     0
 10
2.62516
 20
130.397
 30
0.0
 11
2.85943
 21
130.423
 31
0.0
  0
LINE
  8
0
 62
     0
 10
2.85943
 20
130.423
 30
0.0
 11
3.09507
 21
130.433
 31
0.0
  0
LINE
  8
0
 62
     0
 10
3.09507
 20
130.433
 30
0.0
 11
317.906
 21
130.433
 31
0.0
  0
LINE
  8
0
 62
     0
 10
2.10702
 20
4.14376
 30
0.0
 11
1.66191
 21
3.91777
 31
0.0
  0
LINE
  8
0
 62
     0
 10
1.66191
 20
3.91777
 30
0.0
 11
1.30914
 21
3.56362
 31
0.0
  0
LINE
  8
0
 62
     0
 10
1.30914
 20
3.56362
 30
0.0
 11
1.08314
 21
3.11988
 31
0.0
  0
LINE
  8
0
 62
     0
 10
1.08314
 20
3.11988
 30
0.0
 11
1.00459
 21
2.62654
 31
0.0
  0
LINE
  8
0
 62
     0
 10
1.00459
 20
2.62654
 30
0.0
 11
1.08314
 21
2.13458
 31
0.0
  0
LINE
  8
0
 62
     0
 10
1.08314
 20
2.13458
 30
0.0
 11
1.30914
 21
1.68947
 31
0.0
  0
LINE
  8
0
 62
     0
 10
1.30914
 20
1.68947
 30
0.0
 11
1.66191
 21
1.3367
 31
0.0
  0
LINE
  8
0
 62
     0
 10
1.66191
 20
1.3367
 30
0.0
 11
2.10702
 21
1.1107
 31
0.0
  0
LINE
  8
0
 62
     0
 10
2.10702
 20
1.1107
 30
0.0
 11
2.59898
 21
1.03077
 31
0.0
  0
LINE
  8
0
 62
     0
 10
2.59898
 20
1.03077
 30
0.0
 11
3.09232
 21
1.1107
 31
0.0
  0
LINE
  8
0
 62
     0
 10
3.09232
 20
1.1107
 30
0.0
 11
3.53741
 21
1.3367
 31
0.0
  0
LINE
  8
0
 62
     0
 10
3.53741
 20
1.3367
 30
0.0
 11
3.89019
 21
1.68947
 31
0.0
  0
LINE
  8
0
 62
     0
 10
3.89019
 20
1.68947
 30
0.0
 11
4.11621
 21
2.13458
 31
0.0
  0
LINE
  8
0
 62
     0
 10
4.11621
 20
2.13458
 30
0.0
 11
4.19474
 21
2.62654
 31
0.0
  0
LINE
  8
0
 62
     0
 10
4.19474
 20
2.62654
 30
0.0
 11
4.11621
 21
3.11988
 31
0.0
  0
LINE
  8
0
 62
     0
 10
4.11621
 20
3.11988
 30
0.0
 11
3.89019
 21
3.56362
 31
0.0
  0
LINE
  8
0
 62
     0
 10
3.89019
 20
3.56362
 30
0.0
 11
3.53741
 21
3.91777
 31
0.0
  0
LINE
  8
0
 62
     0
 10
3.53741
 20
3.91777
 30
0.0
 11
3.09232
 21
4.14376
 31
0.0
  0
LINE
  8
0
 62
     0
 10
3.09232
 20
4.14376
 30
0.0
 11
2.59898
 21
4.22233
 31
0.0
  0
LINE
  8
0
 62
     0
 10
2.59898
 20
4.22233
 30
0.0
 11
2.10702
 21
4.14376
 31
0.0
  0
LINE
  8
0
 62
     0
 10
107.374
 20
4.14376
 30
0.0
 11
106.929
 21
3.91777
 31
0.0
  0
LINE
  8
0
 62
     0
 10
106.929
 20
3.91777
 30
0.0
 11
106.576
 21
3.56362
 31
0.0
  0
LINE
  8
0
 62
     0
 10
106.576
 20
3.56362
 30
0.0
 11
106.35
 21
3.11988
 31
0.0
  0
LINE
  8
0
 62
     0
 10
106.35
 20
3.11988
 30
0.0
 11
106.271
 21
2.62654
 31
0.0
  0
LINE
  8
0
 62
     0
 10
106.271
 20
2.62654
 30
0.0
 11
106.35
 21
2.13458
 31
0.0
  0
LINE
  8
0
 62
     0
 10
106.35
 20
2.13458
 30
0.0
 11
106.576
 21
1.68947
 31
0.0
  0
LINE
  8
0
 62
     0
 10
106.576
 20
1.68947
 30
0.0
 11
106.929
 21
1.3367
 31
0.0
  0
LINE
  8
0
 62
     0
 10
106.929
 20
1.3367
 30
0.0
 11
107.374
 21
1.1107
 31
0.0
  0
LINE
  8
0
 62
     0
 10
107.374
 20
1.1107
 30
0.0
 11
107.867
 21
1.03077
 31
0.0
  0
LINE
  8
0
 62
     0
 10
107.867
 20
1.03077
 30
0.0
 11
108.359
 21
1.1107
 31
0.0
  0
LINE
  8
0
 62
     0
 10
108.359
 20
1.1107
 30
0.0
 11
108.804
 21
1.3367
 31
0.0
  0
LINE
  8
0
 62
     0
 10
108.804
 20
1.3367
 30
0.0
 11
109.157
 21
1.68947
 31
0.0
  0
LINE
  8
0
 62
     0
 10
109.157
 20
1.68947
 30
0.0
 11
109.383
 21
2.13458
 31
0.0
  0
LINE
  8
0
 62
     0
 10
109.383
 20
2.13458
 30
0.0
 11
109.463
 21
2.62654
 31
0.0
  0
LINE
  8
0
 62
     0
 10
109.463
 20
2.62654
 30
0.0
 11
109.383
 21
3.11988
 31
0.0
  0
LINE
  8
0
 62
     0
 10
109.383
 20
3.11988
 30
0.0
 11
109.157
 21
3.56362
 31
0.0
  0
LINE
  8
0
 62
     0
 10
109.157
 20
3.56362
 30
0.0
 11
108.804
 21
3.91777
 31
0.0
  0
LINE
  8
0
 62
     0
 10
108.804
 20
3.91777
 30
0.0
 11
108.359
 21
4.14376
 31
0.0
  0
LINE
  8
0
 62
     0
 10
108.359
 20
4.14376
 30
0.0
 11
107.867
 21
4.22233
 31
0.0
  0
LINE
  8
0
 62
     0
 10
107.867
 20
4.22233
 30
0.0
 11
107.374
 21
4.14376
 31
0.0
  0
LINE
  8
0
 62
     0
 10
212.641
 20
4.14376
 30
0.0
 11
212.196
 21
3.91777
 31
0.0
  0
LINE
  8
0
 62
     0
 10
212.196
 20
3.91777
 30
0.0
 11
211.843
 21
3.56362
 31
0.0
  0
LINE
  8
0
 62
     0
 10
211.843
 20
3.56362
 30
0.0
 11
211.617
 21
3.11988
 31
0.0
  0
LINE
  8
0
 62
     0
 10
211.617
 20
3.11988
 30
0.0
 11
211.54
 21
2.62654
 31
0.0
  0
LINE
  8
0
 62
     0
 10
211.54
 20
2.62654
 30
0.0
 11
211.617
 21
2.13458
 31
0.0
  0
LINE
  8
0
 62
     0
 10
211.617
 20
2.13458
 30
0.0
 11
211.843
 21
1.68947
 31
0.0
  0
LINE
  8
0
 62
     0
 10
211.843
 20
1.68947
 30
0.0
 11
212.196
 21
1.3367
 31
0.0
  0
LINE
  8
0
 62
     0
 10
212.196
 20
1.3367
 30
0.0
 11
212.641
 21
1.1107
 31
0.0
  0
LINE
  8
0
 62
     0
 10
212.641
 20
1.1107
 30
0.0
 11
213.134
 21
1.03077
 31
0.0
  0
LINE
  8
0
 62
     0
 10
213.134
 20
1.03077
 30
0.0
 11
213.626
 21
1.1107
 31
0.0
  0
LINE
  8
0
 62
     0
 10
213.626
 20
1.1107
 30
0.0
 11
214.071
 21
1.3367
 31
0.0
  0
LINE
  8
0
 62
     0
 10
214.071
 20
1.3367
 30
0.0
 11
214.424
 21
1.68947
 31
0.0
  0
LINE
  8
0
 62
     0
 10
214.424
 20
1.68947
 30
0.0
 11
214.65
 21
2.13458
 31
0.0
  0
LINE
  8
0
 62
     0
 10
214.65
 20
2.13458
 30
0.0
 11
214.73
 21
2.62654
 31
0.0
  0
LINE
  8
0
 62
     0
 10
214.73
 20
2.62654
 30
0.0
 11
214.65
 21
3.11988
 31
0.0
  0
LINE
  8
0
 62
     0
 10
214.65
 20
3.11988
 30
0.0
 11
214.424
 21
3.56362
 31
0.0
  0
LINE
  8
0
 62
     0
 10
214.424
 20
3.56362
 30
0.0
 11
214.071
 21
3.91777
 31
0.0
  0
LINE
  8
0
 62
     0
 10
214.071
 20
3.91777
 30
0.0
 11
213.626
 21
4.14376
 31
0.0
  0
LINE
  8
0
 62
     0
 10
213.626
 20
4.14376
 30
0.0
 11
213.134
 21
4.22233
 31
0.0
  0
LINE
  8
0
 62
     0
 10
213.134
 20
4.22233
 30
0.0
 11
212.641
 21
4.14376
 31
0.0
  0
LINE
  8
0
 62
     0
 10
317.908
 20
4.14376
 30
0.0
 11
317.464
 21
3.91777
 31
0.0
  0
LINE
  8
0
 62
     0
 10
317.464
 20
3.91777
 30
0.0
 11
317.11
 21
3.56362
 31
0.0
  0
LINE
  8
0
 62
     0
 10
317.11
 20
3.56362
 30
0.0
 11
316.884
 21
3.11988
 31
0.0
  0
LINE
  8
0
 62
     0
 10
316.884
 20
3.11988
 30
0.0
 11
316.807
 21
2.62654
 31
0.0
  0
LINE
  8
0
 62
     0
 10
316.807
 20
2.62654
 30
0.0
 11
316.884
 21
2.13458
 31
0.0
  0
LINE
  8
0
 62
     0
 10
316.884
 20
2.13458
 30
0.0
 11
317.11
 21
1.68947
 31
0.0
  0
LINE
  8
0
 62
     0
 10
317.11
 20
1.68947
 30
0.0
 11
317.464
 21
1.3367
 31
0.0
  0
LINE
  8
0
 62
     0
 10
317.464
 20
1.3367
 30
0.0
 11
317.908
 21
1.1107
 31
0.0
  0
LINE
  8
0
 62
     0
 10
317.908
 20
1.1107
 30
0.0
 11
318.401
 21
1.03077
 31
0.0
  0
LINE
  8
0
 62
     0
 10
318.401
 20
1.03077
 30
0.0
 11
318.893
 21
1.1107
 31
0.0
  0
LINE
  8
0
 62
     0
 10
318.893
 20
1.1107
 30
0.0
 11
319.338
 21
1.3367
 31
0.0
  0
LINE
  8
0
 62
     0
 10
319.338
 20
1.3367
 30
0.0
 11
319.691
 21
1.68947
 31
0.0
  0
LINE
  8
0
 62
     0
 10
319.691
 20
1.68947
 30
0.0
 11
319.917
 21
2.13458
 31
0.0
  0
LINE
  8
0
 62
     0
 10
319.917
 20
2.13458
 30
0.0
 11
319.997
 21
2.62654
 31
0.0
  0
LINE
  8
0
 62
     0
 10
319.997
 20
2.62654
 30
0.0
 11
319.917
 21
3.11988
 31
0.0
  0
LINE
  8
0
 62
     0
 10
319.917
 20
3.11988
 30
0.0
 11
319.691
 21
3.56362
 31
0.0
  0
LINE
  8
0
 62
     0
 10
319.691
 20
3.56362
 30
0.0
 11
319.338
 21
3.91777
 31
0.0
  0
LINE
  8
0
 62
     0
 10
319.338
 20
3.91777
 30
0.0
 11
318.893
 21
4.14376
 31
0.0
  0
LINE
  8
0
 62
     0
 10
318.893
 20
4.14376
 30
0.0
 11
318.401
 21
4.22233
 31
0.0
  0
LINE
  8
0
 62
     0
 10
318.401
 20
4.22233
 30
0.0
 11
317.908
 21
4.14376
 31
0.0
  0
LINE
  8
0
 62
     0
 10
317.908
 20
129.445
 30
0.0
 11
317.464
 21
129.219
 31
0.0
  0
LINE
  8
0
 62
     0
 10
317.464
 20
129.219
 30
0.0
 11
317.11
 21
128.866
 31
0.0
  0
LINE
  8
0
 62
     0
 10
317.11
 20
128.866
 30
0.0
 11
316.884
 21
128.421
 31
0.0
  0
LINE
  8
0
 62
     0
 10
316.884
 20
128.421
 30
0.0
 11
316.807
 21
127.927
 31
0.0
  0
LINE
  8
0
 62
     0
 10
316.807
 20
127.927
 30
0.0
 11
316.884
 21
127.435
 31
0.0
  0
LINE
  8
0
 62
     0
 10
316.884
 20
127.435
 30
0.0
 11
317.11
 21
126.99
 31
0.0
  0
LINE
  8
0
 62
     0
 10
317.11
 20
126.99
 30
0.0
 11
317.464
 21
126.638
 31
0.0
  0
LINE
  8
0
 62
     0
 10
317.464
 20
126.638
 30
0.0
 11
317.908
 21
126.412
 31
0.0
  0
LINE
  8
0
 62
     0
 10
317.908
 20
126.412
 30
0.0
 11
318.401
 21
126.331
 31
0.0
  0
LINE
  8
0
 62
     0
 10
318.401
 20
126.331
 30
0.0
 11
318.893
 21
126.412
 31
0.0
  0
LINE
  8
0
 62
     0
 10
318.893
 20
126.412
 30
0.0
 11
319.338
 21
126.638
 31
0.0
  0
LINE
  8
0
 62
     0
 10
319.338
 20
126.638
 30
0.0
 11
319.691
 21
126.99
 31
0.0
  0
LINE
  8
0
 62
     0
 10
319.691
 20
126.99
 30
0.0
 11
319.917
 21
127.435
 31
0.0
  0
LINE
  8
0
 62
     0
 10
319.917
 20
127.435
 30
0.0
 11
319.997
 21
127.927
 31
0.0
  0
LINE
  8
0
 62
     0
 10
319.997
 20
127.927
 30
0.0
 11
319.917
 21
128.421
 31
0.0
  0
LINE
  8
0
 62
     0
 10
319.917
 20
128.421
 30
0.0
 11
319.691
 21
128.866
 31
0.0
  0
LINE
  8
0
 62
     0
 10
319.691
 20
128.866
 30
0.0
 11
319.338
 21
129.219
 31
0.0
  0
LINE
  8
0
 62
     0
 10
319.338
 20
129.219
 30
0.0
 11
318.893
 21
129.445
 31
0.0
  0
LINE
  8
0
 62
     0
 10
318.893
 20
129.445
 30
0.0
 11
318.401
 21
129.522
 31
0.0
  0
LINE
  8
0
 62
     0
 10
318.401
 20
129.522
 30
0.0
 11
317.908
 21
129.445
 31
0.0
  0
LINE
  8
0
 62
     0
 10
212.641
 20
129.445
 30
0.0
 11
212.196
 21
129.219
 31
0.0
  0
LINE
  8
0
 62
     0
 10
212.196
 20
129.219
 30
0.0
 11
211.843
 21
128.866
 31
0.0
  0
LINE
  8
0
 62
     0
 10
211.843
 20
128.866
 30
0.0
 11
211.617
 21
128.421
 31
0.0
  0
LINE
  8
0
 62
     0
 10
211.617
 20
128.421
 30
0.0
 11
211.54
 21
127.927
 31
0.0
  0
LINE
  8
0
 62
     0
 10
211.54
 20
127.927
 30
0.0
 11
211.617
 21
127.435
 31
0.0
  0
LINE
  8
0
 62
     0
 10
211.617
 20
127.435
 30
0.0
 11
211.843
 21
126.99
 31
0.0
  0
LINE
  8
0
 62
     0
 10
211.843
 20
126.99
 30
0.0
 11
212.196
 21
126.638
 31
0.0
  0
LINE
  8
0
 62
     0
 10
212.196
 20
126.638
 30
0.0
 11
212.641
 21
126.412
 31
0.0
  0
LINE
  8
0
 62
     0
 10
212.641
 20
126.412
 30
0.0
 11
213.134
 21
126.331
 31
0.0
  0
LINE
  8
0
 62
     0
 10
213.134
 20
126.331
 30
0.0
 11
213.626
 21
126.412
 31
0.0
  0
LINE
  8
0
 62
     0
 10
213.626
 20
126.412
 30
0.0
 11
214.071
 21
126.638
 31
0.0
  0
LINE
  8
0
 62
     0
 10
214.071
 20
126.638
 30
0.0
 11
214.424
 21
126.99
 31
0.0
  0
LINE
  8
0
 62
     0
 10
214.424
 20
126.99
 30
0.0
 11
214.65
 21
127.435
 31
0.0
  0
LINE
  8
0
 62
     0
 10
214.65
 20
127.435
 30
0.0
 11
214.73
 21
127.927
 31
0.0
  0
LINE
  8
0
 62
     0
 10
214.73
 20
127.927
 30
0.0
 11
214.65
 21
128.421
 31
0.0
  0
LINE
  8
0
 62
     0
 10
214.65
 20
128.421
 30
0.0
 11
214.424
 21
128.866
 31
0.0
  0
LINE
  8
0
 62
     0
 10
214.424
 20
128.866
 30
0.0
 11
214.071
 21
129.219
 31
0.0
  0
LINE
  8
0
 62
     0
 10
214.071
 20
129.219
 30
0.0
 11
213.626
 21
129.445
 31
0.0
  0
LINE
  8
0
 62
     0
 10
213.626
 20
129.445
 30
0.0
 11
213.134
 21
129.522
 31
0.0
  0
LINE
  8
0
 62
     0
 10
213.134
 20
129.522
 30
0.0
 11
212.641
 21
129.445
 31
0.0
  0
LINE
  8
0
 62
     0
 10
107.374
 20
129.445
 30
0.0
 11
106.929
 21
129.219
 31
0.0
  0
LINE
  8
0
 62
     0
 10
106.929
 20
129.219
 30
0.0
 11
106.576
 21
128.866
 31
0.0
  0
LINE
  8
0
 62
     0
 10
106.576
 20
128.866
 30
0.0
 11
106.35
 21
128.421
 31
0.0
  0
LINE
  8
0
 62
     0
 10
106.35
 20
128.421
 30
0.0
 11
106.273
 21
127.927
 31
0.0
  0
LINE
  8
0
 62
     0
 10
106.273
 20
127.927
 30
0.0
 11
106.35
 21
127.435
 31
0.0
  0
LINE
  8
0
 62
     0
 10
106.35
 20
127.435
 30
0.0
 11
106.576
 21
126.99
 31
0.0
  0
LINE
  8
0
 62
     0
 10
106.576
 20
126.99
 30
0.0
 11
106.929
 21
126.638
 31
0.0
  0
LINE
  8
0
 62
     0
 10
106.929
 20
126.638
 30
0.0
 11
107.374
 21
126.412
 31
0.0
  0
LINE
  8
0
 62
     0
 10
107.374
 20
126.412
 30
0.0
 11
107.867
 21
126.331
 31
0.0
  0
LINE
  8
0
 62
     0
 10
107.867
 20
126.331
 30
0.0
 11
108.359
 21
126.412
 31
0.0
  0
LINE
  8
0
 62
     0
 10
108.359
 20
126.412
 30
0.0
 11
108.804
 21
126.638
 31
0.0
  0
LINE
  8
0
 62
     0
 10
108.804
 20
126.638
 30
0.0
 11
109.157
 21
126.99
 31
0.0
  0
LINE
  8
0
 62
     0
 10
109.157
 20
126.99
 30
0.0
 11
109.383
 21
127.435
 31
0.0
  0
LINE
  8
0
 62
     0
 10
109.383
 20
127.435
 30
0.0
 11
109.463
 21
127.927
 31
0.0
  0
LINE
  8
0
 62
     0
 10
109.463
 20
127.927
 30
0.0
 11
109.383
 21
128.421
 31
0.0
  0
LINE
  8
0
 62
     0
 10
109.383
 20
128.421
 30
0.0
 11
109.157
 21
128.866
 31
0.0
  0
LINE
  8
0
 62
     0
 10
109.157
 20
128.866
 30
0.0
 11
108.804
 21
129.219
 31
0.0
  0
LINE
  8
0
 62
     0
 10
108.804
 20
129.219
 30
0.0
 11
108.359
 21
129.445
 31
0.0
  0
LINE
  8
0
 62
     0
 10
108.359
 20
129.445
 30
0.0
 11
107.867
 21
129.522
 31
0.0
  0
LINE
  8
0
 62
     0
 10
107.867
 20
129.522
 30
0.0
 11
107.374
 21
129.445
 31
0.0
  0
LINE
  8
0
 62
     0
 10
2.10702
 20
129.445
 30
0.0
 11
1.66191
 21
129.219
 31
0.0
  0
LINE
  8
0
 62
     0
 10
1.66191
 20
129.219
 30
0.0
 11
1.30914
 21
128.866
 31
0.0
  0
LINE
  8
0
 62
     0
 10
1.30914
 20
128.866
 30
0.0
 11
1.08314
 21
128.421
 31
0.0
  0
LINE
  8
0
 62
     0
 10
1.08314
 20
128.421
 30
0.0
 11
1.00459
 21
127.929
 31
0.0
  0
LINE
  8
0
 62
     0
 10
1.00459
 20
127.929
 30
0.0
 11
1.08314
 21
127.435
 31
0.0
  0
LINE
  8
0
 62
     0
 10
1.08314
 20
127.435
 30
0.0
 11
1.30914
 21
126.99
 31
0.0
  0
LINE
  8
0
 62
     0
 10
1.30914
 20
126.99
 30
0.0
 11
1.66191
 21
126.638
 31
0.0
  0
LINE
  8
0
 62
     0
 10
1.66191
 20
126.638
 30
0.0
 11
2.10702
 21
126.412
 31
0.0
  0
LINE
  8
0
 62
     0
 10
2.10702
 20
126.412
 30
0.0
 11
2.59898
 21
126.333
 31
0.0
  0
LINE
  8
0
 62
     0
 10
2.59898
 20
126.333
 30
0.0
 11
3.09232
 21
126.412
 31
0.0
  0
LINE
  8
0
 62
     0
 10
3.09232
 20
126.412
 30
0.0
 11
3.53741
 21
126.638
 31
0.0
  0
LINE
  8
0
 62
     0
 10
3.53741
 20
126.638
 30
0.0
 11
3.89019
 21
126.99
 31
0.0
  0
LINE
  8
0
 62
     0
 10
3.89019
 20
126.99
 30
0.0
 11
4.11621
 21
127.435
 31
0.0
  0
LINE
  8
0
 62
     0
 10
4.11621
 20
127.435
 30
0.0
 11
4.19474
 21
127.929
 31
0.0
  0
LINE
  8
0
 62
     0
 10
4.19474
 20
127.929
 30
0.0
 11
4.11621
 21
128.421
 31
0.0
  0
LINE
  8
0
 62
     0
 10
4.11621
 20
128.421
 30
0.0
 11
3.89019
 21
128.866
 31
0.0
  0
LINE
  8
0
 62
     0
 10
3.89019
 20
128.866
 30
0.0
 11
3.53741
 21
129.219
 31
0.0
  0
LINE
  8
0
 62
     0
 10
3.53741
 20
129.219
 30
0.0
 11
3.09232
 21
129.445
 31
0.0
  0
LINE
  8
0
 62
     0
 10
3.09232
 20
129.445
 30
0.0
 11
2.59898
 21
129.523
 31
0.0
  0
LINE
  8
0
 62
     0
 10
2.59898
 20
129.523
 30
0.0
 11
2.10702
 21
129.445
 31
0.0
  0
ENDSEC
  0
EOF
